<svg version="1.1" id="Layer_1" xmlns="http://www.w3.org/2000/svg" xmlns:xlink="http://www.w3.org/1999/xlink" x="0px" y="0px"
	 width="100%" viewBox="0 0 686 762" enable-background="new 0 0 686 762" xml:space="preserve">
<path fill="#000000" opacity="1.000000" stroke="none" 
	d="
M1.000000,172.000000 
	C1.000000,114.666664 1.000000,57.833332 1.000000,1.000000 
	C229.666672,1.000000 458.333344,1.000000 687.000000,1.000000 
	C687.000000,255.000000 687.000000,509.000000 687.000000,763.000000 
	C458.333344,763.000000 229.666672,763.000000 1.000000,763.000000 
	C1.000000,566.166687 1.000000,369.333344 1.000000,172.000000 
M490.578461,641.977783 
	C490.763153,641.663818 490.947876,641.349854 491.030823,641.032715 
	C491.030823,641.032715 491.032196,641.134521 491.569183,640.983704 
	C491.753418,640.675964 491.937622,640.368164 492.048279,640.052124 
	C492.048279,640.052124 492.055084,640.125854 492.584991,639.974731 
	C492.765259,639.668213 492.945496,639.361633 493.051331,639.051392 
	C493.051331,639.051392 493.055054,639.125854 493.585083,638.974670 
	C493.765320,638.668091 493.945587,638.361511 494.051270,638.051208 
	C494.051270,638.051208 494.054993,638.125793 494.585144,637.974670 
	C494.765411,637.667969 494.945648,637.361267 495.044922,637.015320 
	C495.044922,637.015320 495.088135,637.094238 495.658081,636.924316 
	C496.135223,636.315491 496.612335,635.706604 497.037445,635.033325 
	C497.037445,635.033325 497.111481,635.070435 497.726624,634.853638 
	C497.847534,634.223267 497.968445,633.592896 497.963196,632.851562 
	C497.963196,632.851562 497.841339,632.967285 498.206451,632.869751 
	C498.440491,632.753784 498.625397,632.584167 499.101624,631.724854 
	C503.938782,626.515930 509.106110,621.572144 513.544861,616.043396 
	C522.975037,604.297546 532.069824,592.280823 541.223633,580.315125 
	C560.244507,555.451111 576.484070,528.805847 590.940186,501.101318 
	C598.581543,486.457001 605.674072,471.488739 612.237488,456.330383 
	C618.364197,442.180847 623.463135,427.586334 629.709778,412.852020 
	C632.078491,405.657440 634.447205,398.462860 637.017578,390.466766 
	C639.706299,381.013123 642.794739,371.651703 645.002136,362.086975 
	C649.882080,340.942230 654.507141,319.733582 658.839050,298.470062 
	C660.463745,290.494995 660.986450,282.295410 662.777405,273.791199 
	C663.867249,264.892181 665.206787,256.015045 665.989258,247.089081 
	C667.208008,233.186981 668.484070,219.265747 668.933167,205.326767 
	C669.437378,189.675461 669.414185,173.984924 668.964050,158.330338 
	C668.295105,135.069016 667.210144,111.815788 665.982300,88.576027 
	C665.360352,76.805275 664.410095,65.024712 662.940552,53.332500 
	C660.920898,37.262436 658.268066,21.271954 655.842407,4.950603 
	C654.011292,4.950603 652.367798,4.950603 650.724304,4.950603 
	C445.629303,4.950603 240.534286,4.950602 35.439281,4.950610 
	C34.606239,4.950610 33.584293,4.641766 32.977905,5.012527 
	C31.538166,5.892823 29.329458,6.938256 29.125824,8.192121 
	C27.510313,18.139486 26.202694,28.140385 24.976353,38.146389 
	C23.844755,47.379349 22.902229,56.635975 21.928253,65.887634 
	C20.577017,78.722885 19.013199,91.543152 18.023773,104.407013 
	C17.025633,117.384232 16.178320,130.403000 16.064154,143.410599 
	C15.924507,159.321243 16.471064,175.243973 16.992140,191.152573 
	C17.450977,205.161087 18.189680,219.162704 18.985382,233.157074 
	C19.469311,241.668182 19.982334,250.199020 21.039200,258.651337 
	C22.771851,272.508301 24.876232,286.321320 27.032948,300.120209 
	C27.391165,302.412109 28.811285,304.538025 29.873940,307.474365 
	C30.532888,311.782593 31.050314,316.118469 31.884256,320.392548 
	C33.107754,326.663147 34.557640,332.889557 35.410557,339.620453 
	C36.930710,346.617188 38.355225,353.637207 40.048050,360.591919 
	C40.406216,362.063385 41.745457,363.296112 42.748127,365.367310 
	C42.735260,366.458588 42.451820,367.631134 42.751335,368.628632 
	C45.768822,378.677521 48.643654,388.778961 52.029724,398.704956 
	C56.044537,410.473969 60.345879,422.153687 64.852928,433.743805 
	C68.883743,444.109344 73.279129,454.336548 77.670494,464.557404 
	C81.274452,472.945648 84.827667,481.375946 88.917953,489.529480 
	C93.255264,498.175476 98.138733,506.551300 102.898315,514.980469 
	C106.758102,521.816040 110.777168,528.562012 114.746109,535.335693 
	C116.903809,539.018188 119.104347,542.675598 121.524467,546.603394 
	C121.727036,546.719238 121.926758,546.839783 122.027969,546.872681 
	C122.027969,546.872681 121.926804,546.958984 121.998772,547.618042 
	C122.306076,548.109558 122.613373,548.601135 122.957191,549.020874 
	C122.957191,549.020874 122.879959,549.043884 122.953445,549.716003 
	C123.621910,550.518860 124.290375,551.321716 124.980652,551.997986 
	C124.980652,551.997986 124.853813,551.977661 124.950714,552.626709 
	C125.267059,553.110718 125.583405,553.594727 125.960175,553.988037 
	C125.960175,553.988037 125.876068,554.057617 126.036613,554.599243 
	C126.354713,554.779663 126.672813,554.960083 127.003319,554.990906 
	C127.003319,554.990906 126.853813,554.977661 126.950691,555.626709 
	C127.267036,556.110718 127.583382,556.594727 127.960175,556.988037 
	C127.960175,556.988037 127.876068,557.057617 128.036621,557.599304 
	C128.354721,557.779663 128.672821,557.960083 129.003235,557.990967 
	C129.003235,557.990967 128.853821,557.977722 128.950729,558.626770 
	C129.267075,559.110779 129.583420,559.594727 129.960144,559.988037 
	C129.960144,559.988037 129.876068,560.057617 130.036621,560.599304 
	C130.354721,560.779663 130.672821,560.960083 131.003235,560.990967 
	C131.003235,560.990967 130.853821,560.977722 130.950714,561.626770 
	C131.267059,562.110779 131.583405,562.594727 131.960846,562.987549 
	C131.960846,562.987549 131.876785,563.058472 132.035217,563.597351 
	C132.350876,563.778076 132.666534,563.958740 132.981552,564.033875 
	C132.981552,564.033875 132.876053,564.038269 132.953033,564.707153 
	C133.613327,565.507141 134.273621,566.307129 134.944275,567.023560 
	C134.944275,567.023560 134.860199,567.018982 135.040466,567.601929 
	C135.372910,567.828857 135.705353,568.055786 136.257629,568.894897 
	C136.849136,569.477722 137.520096,569.999634 138.020355,570.652405 
	C147.774124,583.378418 157.166382,596.400574 167.343826,608.777283 
	C177.151917,620.704956 187.749985,631.984192 198.036331,643.516724 
	C201.765030,647.697144 205.529709,651.849854 209.403992,655.894470 
	C211.885056,658.484680 214.596634,660.854126 217.424255,663.665100 
	C217.634903,663.838867 217.858017,663.994751 218.068420,663.966309 
	C218.068420,663.966309 217.901031,663.984680 218.010880,664.544678 
	C218.323166,664.737061 218.635452,664.929443 218.953613,665.033752 
	C218.953613,665.033752 218.865326,665.033630 219.024536,665.575806 
	C219.338440,665.762085 219.652344,665.948303 219.968506,666.031372 
	C219.968506,666.031372 219.865326,666.033630 220.024536,666.575806 
	C220.338440,666.762085 220.652344,666.948303 220.968506,667.031372 
	C220.968506,667.031372 220.865326,667.033630 221.024536,667.575806 
	C221.338440,667.762085 221.652344,667.948303 221.969574,668.027466 
	C221.969574,668.027466 221.862396,668.028198 222.019089,668.567200 
	C222.329071,668.753540 222.639053,668.939880 222.953766,669.039795 
	C222.953766,669.039795 222.867264,669.041260 223.022552,669.573792 
	C223.329056,669.757324 223.635559,669.940857 223.946579,670.049988 
	C223.946579,670.049988 223.872192,670.053284 224.027603,670.582397 
	C224.333923,670.764160 224.640259,670.945923 224.950165,671.049683 
	C224.950165,671.049683 224.872177,671.053223 225.027573,671.582336 
	C225.333878,671.764099 225.640182,671.945862 225.981018,672.048462 
	C225.981018,672.048462 225.903534,672.086670 226.077850,672.655334 
	C226.686478,673.134033 227.295105,673.612671 227.943741,674.080200 
	C227.943741,674.080200 227.949448,674.121277 228.152176,674.745117 
	C229.094330,675.126770 230.036499,675.508423 231.578537,676.205322 
	C234.422485,678.816040 237.266434,681.426697 240.055740,684.577820 
	C240.353928,684.760010 240.652130,684.942200 240.956100,685.027893 
	C240.956100,685.027893 240.859451,685.027283 241.031250,685.567627 
	C241.345032,685.758545 241.658813,685.949463 241.975525,686.021973 
	C241.975525,686.021973 241.857040,686.022461 242.024277,686.556763 
	C242.331360,686.747375 242.638428,686.937988 242.991669,687.046936 
	C242.991669,687.046936 242.909805,687.092773 243.191345,687.771545 
	C243.758896,687.923340 244.326431,688.075134 244.884094,688.122864 
	C244.884094,688.122864 244.782974,688.149292 244.283813,688.763550 
	C245.498932,689.541687 246.714066,690.319824 247.934265,691.020203 
	C247.934265,691.020203 247.856339,691.021362 248.025467,691.558472 
	C248.335159,691.749573 248.644852,691.940674 248.959167,692.033447 
	C248.959167,692.033447 248.860733,692.034180 249.028595,692.564514 
	C249.334564,692.752747 249.640549,692.940979 249.996536,693.047424 
	C249.996536,693.047424 249.913223,693.094971 250.190887,693.771057 
	C250.755585,693.923157 251.320297,694.075195 251.878860,694.130737 
	C251.878860,694.130737 251.785019,694.154480 251.300339,694.784851 
	C252.178009,695.224121 253.055679,695.663391 253.939087,696.018860 
	C253.939087,696.018860 253.855209,696.019043 254.022995,696.554504 
	C254.330505,696.745850 254.638016,696.937256 254.991714,697.046936 
	C254.991714,697.046936 254.909805,697.092773 255.191360,697.771606 
	C255.758896,697.923401 256.326447,698.075195 256.886749,698.120789 
	C256.886749,698.120789 256.783051,698.144470 256.290009,698.773804 
	C257.171326,699.216919 258.052612,699.660095 258.939636,700.019043 
	C258.939636,700.019043 258.855225,700.019043 259.022980,700.554504 
	C259.330505,700.745850 259.638031,700.937256 259.991760,701.046936 
	C259.991760,701.046936 259.909821,701.092773 260.191376,701.771606 
	C260.758911,701.923401 261.326447,702.075195 261.886749,702.120789 
	C261.886749,702.120789 261.783051,702.144470 261.290009,702.773804 
	C262.171326,703.216919 263.052612,703.660095 263.939270,704.020203 
	C263.939270,704.020203 263.856079,704.020752 264.023590,704.555664 
	C264.330902,704.746704 264.638184,704.937683 265.006744,705.048462 
	C265.006744,705.048462 264.918793,705.097900 265.146606,705.723083 
	C266.407379,706.516296 267.668152,707.309448 268.987244,708.004028 
	C268.987244,708.004028 268.909363,708.088318 269.189270,708.769043 
	C269.757385,708.921631 270.325531,709.074219 270.886658,709.120667 
	C270.886658,709.120667 270.782867,709.144043 270.289368,709.773010 
	C271.170502,710.216003 272.051636,710.658936 272.937714,711.021362 
	C272.937714,711.021362 272.857025,711.022461 273.024292,711.556763 
	C273.331360,711.747375 273.638428,711.937988 274.007294,712.048645 
	C274.007294,712.048645 273.919159,712.098022 274.142059,712.717773 
	C275.080475,713.186768 276.018890,713.655762 276.972961,714.049194 
	C276.972961,714.049194 276.901581,714.078552 277.181000,714.760010 
	C277.748230,714.915649 278.315460,715.071289 278.877533,715.131470 
	C278.877533,715.131470 278.784760,715.154358 278.298553,715.782776 
	C279.174713,716.221985 280.050903,716.661194 280.993408,717.001892 
	C280.993408,717.001892 280.913391,717.090088 281.137421,717.712036 
	C282.078217,718.183594 283.018982,718.655090 283.962952,719.019836 
	C283.962952,719.019836 283.856079,719.020752 284.023621,719.555664 
	C284.330933,719.746643 284.638214,719.937622 285.004211,720.048157 
	C285.004211,720.048157 284.917267,720.096802 285.139801,720.715088 
	C286.072662,721.180908 287.005524,721.646729 287.995728,722.022705 
	C287.995728,722.022705 287.912933,722.089783 288.137085,722.711670 
	C289.077454,723.182922 290.017792,723.654175 290.971649,724.050354 
	C290.971649,724.050354 290.900391,724.077576 291.180267,724.759094 
	C291.747620,724.914978 292.314941,725.070862 292.877350,725.131104 
	C292.877350,725.131104 292.784241,725.153809 292.295776,725.779785 
	C293.170166,726.218628 294.044556,726.657532 295.000000,727.000000 
	C295.000000,727.000000 294.919647,727.098328 295.140228,727.715637 
	C296.070312,728.180237 297.000397,728.644836 298.006165,729.013062 
	C298.006165,729.013062 297.919647,729.098328 298.140228,729.715637 
	C299.070343,730.180237 300.000427,730.644836 301.006165,731.013062 
	C301.006165,731.013062 300.919647,731.098328 301.140259,731.715576 
	C302.070343,732.180176 303.000427,732.644775 303.990234,733.004883 
	C303.990234,733.004883 303.935577,733.107727 304.177032,733.756775 
	C306.758514,735.204346 309.339996,736.651855 311.996948,738.002441 
	C311.996948,738.002441 311.928497,738.104004 312.175354,738.755188 
	C317.090363,741.536133 322.005402,744.317078 326.990234,747.009766 
	C326.990234,747.009766 326.934784,747.107483 327.185425,747.765747 
	C330.785828,749.852783 334.435333,751.860535 337.971558,754.051208 
	C340.939148,755.889526 343.514496,756.391541 346.759918,754.160278 
	C350.426453,751.639587 354.733063,750.072144 358.573669,747.776306 
	C362.524261,745.414490 366.248596,742.674255 369.987091,740.023071 
	C369.987091,740.023071 370.061829,740.112122 370.761780,740.031860 
	C372.197021,739.056580 373.632294,738.081360 374.996613,737.016479 
	C374.996613,737.016479 375.065948,737.113037 375.722290,737.032410 
	C376.512207,736.383667 377.302155,735.734924 378.014069,735.002136 
	C378.014069,735.002136 378.073059,735.100281 378.794342,735.029968 
	C381.217255,733.389465 383.640167,731.748901 386.012268,730.004883 
	C386.012268,730.004883 386.069336,730.109619 386.723389,730.032288 
	C387.508820,729.387756 388.294250,728.743286 388.999054,728.016846 
	C388.999054,728.016846 389.088348,728.087097 389.795380,728.029541 
	C391.889679,726.384949 393.984009,724.740295 395.992645,723.031372 
	C395.992645,723.031372 396.055634,723.118164 396.711914,723.032959 
	C397.502686,722.387268 398.293457,721.741577 398.996887,721.020752 
	C398.996887,721.020752 399.064911,721.114014 399.719269,721.032654 
	C400.505798,720.388184 401.292358,719.743713 401.989929,719.050354 
	C401.989929,719.050354 402.053833,719.129211 402.585785,718.958008 
	C402.771576,718.645935 402.957397,718.333923 403.037689,718.020813 
	C403.037689,718.020813 403.040741,718.126282 403.699890,718.033691 
	C404.494141,717.388062 405.288391,716.742432 406.001221,716.000000 
	C406.001221,716.000000 406.078613,716.099365 406.748047,716.031311 
	C407.860260,715.051392 408.972473,714.071472 410.004211,713.002441 
	C410.004211,713.002441 410.072540,713.100891 410.842743,713.025391 
	C411.300262,712.401611 411.757812,711.777832 412.121216,711.130188 
	C412.121216,711.130188 412.114960,711.227112 412.679077,711.720215 
	C413.149536,711.176270 413.620026,710.632324 414.014099,710.000977 
	C414.014099,710.000977 414.072540,710.100891 414.842712,710.025391 
	C415.300262,709.401611 415.757782,708.777832 416.121185,708.130371 
	C416.121185,708.130371 416.115051,708.227234 416.677368,708.720032 
	C417.147644,708.178040 417.617950,707.636047 418.005920,707.048218 
	C418.005920,707.048218 418.053253,707.129700 418.589233,706.955627 
	C418.775024,706.640076 418.960785,706.324585 419.017151,706.008057 
	C419.017151,706.008057 419.017975,706.137512 419.679993,706.034668 
	C420.479828,705.389465 421.279663,704.744202 421.990936,704.049927 
	C421.990936,704.049927 422.053833,704.129211 422.585846,703.958008 
	C422.771637,703.645996 422.957458,703.333984 423.061188,703.021057 
	C423.061188,703.021057 423.066254,703.102966 423.837494,703.025696 
	C424.296692,702.401855 424.755859,701.778015 425.121063,701.130493 
	C425.121063,701.130493 425.115051,701.227234 425.677338,701.720032 
	C426.147644,701.178040 426.617950,700.636047 427.005524,700.047363 
	C427.005524,700.047363 427.053864,700.129150 427.586365,699.957642 
	C427.772308,699.645142 427.958221,699.332642 428.060852,699.019836 
	C428.060852,699.019836 428.066254,699.102966 428.837494,699.025696 
	C429.296661,698.401855 429.755859,697.778015 430.121063,697.130493 
	C430.121063,697.130493 430.115051,697.227234 430.677368,697.720032 
	C431.147675,697.178040 431.617981,696.636047 432.005646,696.047546 
	C432.005646,696.047546 432.053833,696.129211 432.585815,695.958008 
	C432.771606,695.645996 432.957428,695.333984 433.024902,695.022034 
	C433.024902,695.022034 433.028320,695.140320 433.588074,694.955017 
	C433.791901,694.627991 433.995697,694.301025 434.837219,693.824524 
	C436.304169,692.494324 437.771088,691.164185 439.626251,689.686707 
	C439.814575,689.482605 439.979279,689.260986 440.025787,689.004333 
	C440.025787,689.004333 440.010071,689.099182 440.693634,689.050110 
	C441.817200,688.070068 442.940765,687.090088 443.981384,686.043640 
	C443.981384,686.043640 444.057190,686.123840 444.587646,685.976807 
	C444.766388,685.670227 444.945160,685.363647 445.050385,685.047363 
	C445.050385,685.047363 445.061432,685.120667 445.597961,684.969971 
	C445.776825,684.656921 445.955658,684.343872 446.037842,684.031067 
	C446.037842,684.031067 446.042969,684.127625 446.587982,683.975525 
	C446.770172,683.658997 446.952362,683.342468 447.061523,683.021912 
	C447.061523,683.021912 447.072510,683.094177 447.757355,683.049316 
	C449.193695,681.735840 450.630035,680.422302 451.979187,679.043335 
	C451.979187,679.043335 452.057129,679.123840 452.587585,678.976868 
	C452.766327,678.670288 452.945099,678.363708 453.050323,678.047424 
	C453.050323,678.047424 453.061371,678.120728 453.597443,677.970337 
	C453.776184,677.657715 453.954926,677.345032 454.034302,677.031433 
	C454.034302,677.031433 454.037994,677.130737 454.581238,676.979858 
	C454.764374,676.665955 454.947540,676.352051 455.044189,676.037231 
	C455.044189,676.037231 455.049072,676.123474 455.595795,675.970459 
	C455.776398,675.651367 455.957031,675.332275 456.064697,675.013062 
	C456.064697,675.013062 456.079681,675.084412 456.585175,674.977539 
	C456.735260,674.686523 456.885376,674.395508 457.751953,674.045410 
	C458.685059,673.375305 459.618164,672.705200 460.855988,672.083984 
	C461.091309,671.968628 461.148712,671.794617 461.470398,671.067383 
	C462.022491,670.396851 462.574585,669.726379 463.051971,669.051392 
	C463.051971,669.051392 463.054810,669.126221 463.584442,668.974304 
	C463.765015,668.667847 463.945557,668.361450 464.051147,668.051208 
	C464.051147,668.051208 464.054810,668.126221 464.584412,667.974304 
	C464.764954,667.667847 464.945496,667.361389 465.052155,667.049622 
	C465.052155,667.049622 465.058502,667.123474 465.590179,666.970581 
	C465.770538,666.661316 465.950897,666.351990 466.047394,666.041199 
	C466.047394,666.041199 466.052094,666.124939 466.590393,665.969910 
	C466.772308,665.656494 466.954224,665.343140 467.031860,665.028870 
	C467.031860,665.028870 467.035339,665.133118 467.578003,664.977295 
	C467.763000,664.663330 467.947998,664.349426 468.032959,664.033081 
	C468.032959,664.033081 468.035339,664.133118 468.577972,663.977295 
	C468.763000,663.663330 468.947998,663.349365 469.032959,663.033081 
	C469.032959,663.033081 469.035339,663.133118 469.578033,662.977295 
	C469.763031,662.663391 469.948029,662.349426 470.032959,662.033081 
	C470.032959,662.033081 470.035339,662.133118 470.577972,661.977295 
	C470.762970,661.663330 470.947968,661.349365 471.047516,661.035400 
	C471.047516,661.035400 471.053345,661.120728 471.600677,660.962280 
	C471.766785,660.637024 471.932892,660.311707 471.939789,659.978882 
	C471.939789,659.978882 471.926544,660.137695 472.261658,659.911072 
	C472.508453,659.778564 472.688751,659.584412 473.123383,658.689636 
	C476.854706,655.058960 480.586029,651.428345 484.662262,647.586060 
	C484.834106,647.376404 484.992554,647.157043 484.979218,646.940369 
	C484.979218,646.940369 484.985931,647.099060 485.546539,646.991882 
	C485.737762,646.679199 485.928986,646.366516 486.035706,646.047913 
	C486.035706,646.047913 486.035767,646.132690 486.578491,645.977783 
	C486.763214,645.663818 486.947906,645.349854 487.033417,645.033508 
	C487.033417,645.033508 487.035767,645.132690 487.578461,644.977783 
	C487.763184,644.663818 487.947876,644.349854 488.033417,644.033508 
	C488.033417,644.033508 488.035767,644.132690 488.578491,643.977783 
	C488.763214,643.663818 488.947906,643.349854 489.033417,643.033508 
	C489.033417,643.033508 489.035767,643.132690 489.578522,642.977783 
	C489.763245,642.663818 489.947937,642.349854 490.033417,642.033508 
	C490.033417,642.033508 490.035767,642.132690 490.578461,641.977783 
z"/>
<path fill="#152B69" opacity="1.000000" stroke="none" 
	d="
M240.110397,684.037415 
	C237.266434,681.426697 234.422485,678.816040 231.209900,675.646484 
	C229.877319,674.765503 228.913391,674.443420 227.949448,674.121277 
	C227.949448,674.121277 227.943741,674.080200 228.363342,673.777161 
	C227.823151,673.011658 226.863342,672.549133 225.903534,672.086670 
	C225.903534,672.086670 225.981018,672.048462 226.257843,671.637817 
	C225.980499,671.169128 225.426346,671.111145 224.872177,671.053223 
	C224.872177,671.053223 224.950165,671.049683 225.241638,670.638367 
	C224.979462,670.169128 224.425827,670.111206 223.872192,670.053284 
	C223.872192,670.053284 223.946579,670.049988 224.251190,669.659912 
	C223.992966,669.193665 223.430115,669.117432 222.867264,669.041260 
	C222.867264,669.041260 222.953766,669.039795 223.221436,668.673706 
	C222.946869,668.214478 222.404633,668.121338 221.862396,668.028198 
	C221.862396,668.028198 221.969574,668.027466 222.172302,667.658203 
	C221.871780,667.203918 221.368546,667.118774 220.865326,667.033630 
	C220.865326,667.033630 220.968506,667.031372 221.171753,666.660156 
	C220.871796,666.203857 220.368561,666.118713 219.865326,666.033569 
	C219.865326,666.033630 219.968506,666.031372 220.171753,665.660156 
	C219.871780,665.203918 219.368561,665.118774 218.865326,665.033630 
	C218.865326,665.033630 218.953613,665.033752 219.208374,664.716309 
	C218.942444,664.260803 218.421738,664.122742 217.901031,663.984680 
	C217.901031,663.984680 218.068420,663.966309 217.968765,663.871948 
	C217.736404,663.496521 217.514984,663.344788 217.204849,663.322510 
	C214.596634,660.854126 211.885056,658.484680 209.403992,655.894470 
	C205.529709,651.849854 201.765030,647.697144 198.036331,643.516724 
	C187.749985,631.984192 177.151917,620.704956 167.343826,608.777283 
	C157.166382,596.400574 147.774124,583.378418 138.020355,570.652405 
	C137.520096,569.999634 136.849136,569.477722 136.223175,568.163086 
	C135.745895,567.293823 135.303040,567.156433 134.860199,567.018982 
	C134.860199,567.018982 134.944275,567.023560 135.242157,566.753418 
	C134.652023,565.668274 133.764038,564.853271 132.876038,564.038269 
	C132.876053,564.038269 132.981552,564.033875 133.133026,563.630432 
	C132.815262,563.170837 132.346024,563.114685 131.876785,563.058472 
	C131.876785,563.058472 131.960846,562.987549 132.349136,562.798950 
	C132.109558,562.066162 131.481689,561.521912 130.853821,560.977722 
	C130.853821,560.977722 131.003235,560.990967 131.119385,560.614990 
	C130.782364,560.178528 130.329224,560.118042 129.876068,560.057617 
	C129.876068,560.057617 129.960144,559.988037 130.348770,559.799194 
	C130.109528,559.066162 129.481659,558.521973 128.853821,557.977722 
	C128.853821,557.977722 129.003235,557.990967 129.119385,557.614990 
	C128.782364,557.178528 128.329224,557.118103 127.876068,557.057617 
	C127.876068,557.057617 127.960175,556.988037 128.348785,556.799194 
	C128.109558,556.066101 127.481689,555.521851 126.853821,554.977661 
	C126.853813,554.977661 127.003319,554.990906 127.119415,554.614990 
	C126.782364,554.178589 126.329216,554.118103 125.876068,554.057617 
	C125.876068,554.057617 125.960175,553.988037 126.348793,553.799194 
	C126.109543,553.066101 125.481674,552.521912 124.853813,551.977661 
	C124.853813,551.977661 124.980652,551.997986 125.188438,551.702698 
	C124.557465,550.619568 123.718712,549.831726 122.879959,549.043884 
	C122.879959,549.043884 122.957191,549.020874 123.271927,548.801636 
	C123.033379,548.041321 122.480087,547.500122 121.926804,546.958984 
	C121.926804,546.958984 122.027969,546.872681 121.836304,547.046997 
	C121.524940,546.928955 121.405251,546.636597 121.285568,546.344299 
	C119.104347,542.675598 116.903809,539.018188 114.746109,535.335693 
	C110.777168,528.562012 106.758102,521.816040 102.898315,514.980469 
	C98.138733,506.551300 93.255264,498.175476 88.917953,489.529480 
	C84.827667,481.375946 81.274452,472.945648 77.670494,464.557404 
	C73.279129,454.336548 68.883743,444.109344 64.852928,433.743805 
	C60.345879,422.153687 56.044537,410.473969 52.029724,398.704956 
	C48.643654,388.778961 45.768822,378.677521 42.751335,368.628632 
	C42.451820,367.631134 42.735260,366.458588 42.552067,364.677734 
	C40.207691,355.703674 38.059376,347.419250 35.911064,339.134796 
	C34.557640,332.889557 33.107754,326.663147 31.884256,320.392548 
	C31.050314,316.118469 30.532888,311.782593 29.708847,306.733582 
	C21.065559,256.137177 17.214554,205.952087 17.982807,155.361252 
	C18.709755,107.490562 23.259697,60.014931 30.686195,12.753450 
	C31.453259,7.871941 32.937153,6.693655 37.743469,6.696793 
	C241.070068,6.829572 444.396759,6.810843 647.723450,6.810843 
	C649.685608,6.810843 651.647766,6.810843 653.655884,6.810843 
	C654.097534,8.879661 654.510254,10.473263 654.772461,12.091271 
	C661.703491,54.858662 666.197571,97.884262 667.518921,141.188660 
	C668.785034,182.680283 667.286072,224.088882 662.168762,265.327332 
	C661.806580,268.245850 662.049866,271.239471 662.011597,274.198181 
	C660.986450,282.295410 660.463745,290.494995 658.839050,298.470062 
	C654.507141,319.733582 649.882080,340.942230 645.002136,362.086975 
	C642.794739,371.651703 639.706299,381.013123 636.577637,390.923645 
	C634.405334,396.035919 632.575562,400.658264 630.979858,405.360016 
	C630.118103,407.899109 629.656555,410.574036 629.014526,413.187683 
	C623.463135,427.586334 618.364197,442.180847 612.237488,456.330383 
	C605.674072,471.488739 598.581543,486.457001 590.940186,501.101318 
	C576.484070,528.805847 560.244507,555.451111 541.223633,580.315125 
	C532.069824,592.280823 522.975037,604.297546 513.544861,616.043396 
	C509.106110,621.572144 503.938782,626.515930 498.889343,632.280273 
	C498.445740,633.184875 498.167175,633.228760 497.841339,632.967285 
	C497.841339,632.967285 497.963196,632.851562 497.562225,632.952271 
	C497.144653,633.725464 497.128082,634.397949 497.111511,635.070435 
	C497.111481,635.070435 497.037445,635.033325 496.754395,634.623230 
	C496.010254,635.173523 495.549225,636.133911 495.088135,637.094238 
	C495.088135,637.094238 495.044922,637.015320 494.635681,636.742676 
	C494.169312,637.021973 494.112152,637.573853 494.054993,638.125793 
	C494.054993,638.125793 494.051270,638.051208 493.638916,637.759705 
	C493.169403,638.020752 493.112244,638.573303 493.055054,639.125854 
	C493.055054,639.125854 493.051331,639.051392 492.638916,638.759216 
	C492.169342,639.019958 492.112213,639.572937 492.055084,640.125854 
	C492.055084,640.125854 492.048279,640.052124 491.675598,639.755981 
	C491.212677,640.018127 491.122437,640.576294 491.032196,641.134521 
	C491.032196,641.134521 491.030823,641.032715 490.659149,640.827515 
	C490.203583,641.125732 490.119690,641.629211 490.035767,642.132690 
	C490.035767,642.132690 490.033417,642.033508 489.660461,641.827881 
	C489.203583,642.125732 489.119659,642.629211 489.035767,643.132690 
	C489.035767,643.132690 489.033417,643.033508 488.660461,642.827881 
	C488.203583,643.125732 488.119659,643.629211 488.035767,644.132690 
	C488.035767,644.132690 488.033417,644.033508 487.660461,643.827881 
	C487.203552,644.125732 487.119659,644.629211 487.035767,645.132690 
	C487.035767,645.132690 487.033417,645.033508 486.660461,644.827881 
	C486.203613,645.125732 486.119690,645.629211 486.035767,646.132690 
	C486.035767,646.132690 486.035706,646.047913 485.716217,645.792175 
	C485.259796,646.057312 485.122894,646.578186 484.985962,647.099060 
	C484.985931,647.099060 484.979218,646.940369 484.861816,647.015930 
	C484.480560,647.253418 484.338196,647.488770 484.317352,647.797668 
	C480.586029,651.428345 476.854706,655.058960 472.758179,659.066772 
	C472.156281,659.620605 472.000793,659.851868 471.926544,660.137695 
	C471.926544,660.137695 471.939789,659.978882 471.581543,659.904541 
	C471.166687,660.260437 471.110016,660.690552 471.053345,661.120728 
	C471.053345,661.120728 471.047516,661.035400 470.667664,660.829102 
	C470.203674,661.126221 470.119537,661.629639 470.035339,662.133118 
	C470.035339,662.133118 470.032959,662.033081 469.660400,661.827881 
	C469.203644,662.126221 469.119507,662.629639 469.035339,663.133118 
	C469.035339,663.133118 469.032959,663.033081 468.660370,662.827881 
	C468.203613,663.126221 468.119476,663.629639 468.035339,664.133118 
	C468.035339,664.133118 468.032959,664.033081 467.660400,663.827881 
	C467.203644,664.126221 467.119507,664.629639 467.035339,665.133118 
	C467.035339,665.133118 467.031860,665.028870 466.633972,664.839111 
	C466.174744,665.141235 466.113403,665.633057 466.052063,666.124939 
	C466.052094,666.124939 466.047394,666.041199 465.628754,665.795898 
	C465.159576,666.074829 465.109039,666.599182 465.058502,667.123474 
	C465.058502,667.123474 465.052155,667.049622 464.639282,666.757568 
	C464.169189,667.019104 464.112000,667.572693 464.054810,668.126221 
	C464.054810,668.126221 464.051147,668.051208 463.638824,667.758423 
	C463.169250,668.019165 463.112030,668.572693 463.054810,669.126221 
	C463.054810,669.126221 463.051971,669.051392 462.617981,668.745605 
	C461.798706,669.480530 461.413452,670.521179 461.028198,671.561890 
	C461.148712,671.794617 461.091309,671.968628 460.555695,671.558594 
	C459.184143,671.734558 458.112915,672.435974 456.725891,673.326538 
	C456.299957,674.038574 456.189819,674.561523 456.079681,675.084412 
	C456.079681,675.084412 456.064697,675.013062 455.662231,674.886230 
	C455.189514,675.214111 455.119293,675.668762 455.049072,676.123474 
	C455.049072,676.123474 455.044189,676.037231 454.664856,675.827820 
	C454.203033,676.122498 454.120514,676.626648 454.038025,677.130737 
	C454.037994,677.130737 454.034302,677.031433 453.624512,676.834473 
	C453.163605,677.131958 453.112488,677.626343 453.061340,678.120728 
	C453.061371,678.120728 453.050323,678.047424 452.637695,677.755981 
	C452.169098,678.017700 452.113098,678.570740 452.057129,679.123840 
	C452.057129,679.123840 451.979187,679.043335 451.839508,678.673157 
	C450.157410,679.900085 448.614960,681.497131 447.072510,683.094177 
	C447.072510,683.094177 447.061523,683.021912 446.667358,682.855957 
	C446.196442,683.169250 446.119720,683.648438 446.042969,684.127625 
	C446.042969,684.127625 446.037842,684.031067 445.627228,683.841309 
	C445.164886,684.141296 445.113190,684.630981 445.061462,685.120667 
	C445.061432,685.120667 445.050385,685.047363 444.637573,684.756348 
	C444.168945,685.018188 444.113068,685.571045 444.057190,686.123840 
	C444.057190,686.123840 443.981384,686.043640 443.844543,685.666199 
	C442.475159,686.558899 441.242615,687.829041 440.010071,689.099182 
	C440.010071,689.099182 440.025787,689.004333 439.814484,688.888550 
	C439.481476,689.126465 439.359772,689.480286 439.238037,689.834045 
	C437.771088,691.164185 436.304169,692.494324 434.113678,693.920227 
	C433.269501,694.390686 433.148895,694.765503 433.028320,695.140320 
	C433.028320,695.140320 433.024902,695.022034 432.619110,694.834473 
	C432.160156,695.141052 432.106995,695.635132 432.053833,696.129211 
	C432.053833,696.129211 432.005646,696.047546 431.805817,695.668945 
	C431.109009,695.935974 430.612030,696.581604 430.115051,697.227234 
	C430.115051,697.227234 430.121063,697.130493 429.763885,697.016724 
	C428.959900,697.636292 428.513092,698.369629 428.066284,699.102966 
	C428.066254,699.102966 428.060852,699.019836 427.638245,698.840698 
	C427.161713,699.150696 427.107788,699.639954 427.053864,700.129150 
	C427.053864,700.129150 427.005524,700.047363 426.805786,699.668823 
	C426.109070,699.935974 425.612091,700.581604 425.115051,701.227295 
	C425.115051,701.227234 425.121063,701.130493 424.763855,701.016724 
	C423.959839,701.636230 423.513031,702.369568 423.066223,703.102966 
	C423.066254,703.102966 423.061188,703.021057 422.637268,702.834106 
	C422.160156,703.141113 422.106995,703.635193 422.053833,704.129211 
	C422.053833,704.129211 421.990936,704.049927 421.821899,703.661743 
	C420.774567,704.228271 419.896271,705.182861 419.017975,706.137512 
	C419.017975,706.137512 419.017151,706.008057 418.623291,705.869385 
	C418.170685,706.197021 418.111969,706.663330 418.053253,707.129700 
	C418.053253,707.129700 418.005920,707.048218 417.805969,706.669250 
	C417.109070,706.935974 416.612061,707.581604 416.115051,708.227234 
	C416.115051,708.227234 416.121185,708.130371 415.758789,708.014587 
	C414.955078,708.632812 414.513794,709.366821 414.072510,710.100891 
	C414.072540,710.100891 414.014099,710.000977 413.803650,709.654358 
	C413.100433,709.947510 412.607697,710.587280 412.114929,711.227112 
	C412.114960,711.227112 412.121216,711.130188 411.758789,711.014526 
	C410.955109,711.632812 410.513824,712.366882 410.072540,713.100891 
	C410.072540,713.100891 410.004211,713.002441 409.815796,712.654480 
	C408.444458,713.570801 407.261536,714.835083 406.078613,716.099365 
	C406.078613,716.099365 406.001221,716.000000 405.812744,715.632263 
	C404.763123,716.218445 403.901947,717.172363 403.040771,718.126282 
	C403.040741,718.126282 403.037689,718.020813 402.625519,717.833984 
	C402.160187,718.141113 402.106995,718.635193 402.053833,719.129211 
	C402.053833,719.129211 401.989929,719.050354 401.808167,718.634705 
	C400.772583,719.184021 399.918732,720.148987 399.064880,721.114014 
	C399.064911,721.114014 398.996887,721.020752 398.802856,720.640198 
	C397.757751,721.212463 396.906677,722.165283 396.055603,723.118164 
	C396.055634,723.118164 395.992645,723.031372 395.840057,722.679199 
	C393.487762,724.247070 391.288055,726.167053 389.088348,728.087097 
	C389.088348,728.087097 388.999054,728.016846 388.808014,727.614990 
	C387.767761,728.178589 386.918549,729.144104 386.069336,730.109619 
	C386.069336,730.109619 386.012268,730.004883 385.884766,729.633911 
	C383.195862,731.208740 380.634460,733.154480 378.073059,735.100281 
	C378.073059,735.100281 378.014069,735.002136 377.785889,734.648376 
	C376.727142,735.234131 375.896545,736.173584 375.065948,737.113037 
	C375.065948,737.113037 374.996613,737.016479 374.860840,736.633545 
	C373.170685,737.537842 371.616272,738.825012 370.061829,740.112183 
	C370.061829,740.112122 369.987091,740.023071 369.851746,739.661133 
	C363.040497,743.016052 356.200500,746.471985 349.741089,750.533203 
	C344.655731,753.730469 340.244904,753.994080 335.245300,750.416931 
	C332.891022,748.732544 329.730164,748.175415 326.934784,747.107483 
	C326.934784,747.107483 326.990234,747.009766 327.267365,746.793579 
	C323.515778,744.018127 319.526428,741.393005 315.429779,738.947510 
	C314.445557,738.359985 313.105103,738.369263 311.928497,738.104004 
	C311.928497,738.104004 311.996948,738.002441 312.271362,737.783569 
	C309.675720,736.079102 306.805664,734.593384 303.935577,733.107727 
	C303.935577,733.107727 303.990234,733.004883 304.303223,732.703125 
	C303.384033,731.967041 302.151825,731.532654 300.919647,731.098328 
	C300.919647,731.098328 301.006165,731.013062 301.311188,730.707275 
	C300.384003,729.967041 299.151825,729.532715 297.919647,729.098389 
	C297.919647,729.098328 298.006165,729.013062 298.311218,728.707153 
	C297.384033,727.966980 296.151855,727.532654 294.919678,727.098267 
	C294.919647,727.098328 295.000000,727.000000 295.304504,726.767395 
	C294.667419,726.074463 293.725830,725.614136 292.784241,725.153809 
	C292.784241,725.153809 292.877350,725.131104 292.916687,724.732056 
	C292.270782,724.247925 291.585602,724.162781 290.900391,724.077576 
	C290.900391,724.077576 290.971649,724.050354 291.206085,723.701477 
	C290.264648,722.931702 289.088776,722.510742 287.912933,722.089783 
	C287.912933,722.089783 287.995728,722.022705 288.286774,721.704834 
	C287.357635,720.956909 286.137451,720.526855 284.917267,720.096802 
	C284.917267,720.096802 285.004211,720.048157 285.271179,719.683350 
	C284.977448,719.219299 284.416779,719.120056 283.856079,719.020752 
	C283.856079,719.020752 283.962952,719.019836 284.195984,718.684814 
	C283.257141,717.929932 282.085266,717.510010 280.913391,717.090088 
	C280.913391,717.090088 280.993408,717.001892 281.283569,716.759644 
	C280.644043,716.062988 279.714417,715.608704 278.784760,715.154358 
	C278.784760,715.154358 278.877533,715.131470 278.915710,714.731140 
	C278.269806,714.246704 277.585693,714.162598 276.901581,714.078552 
	C276.901581,714.078552 276.972961,714.049194 277.212646,713.696350 
	C276.274597,712.928345 275.096893,712.513184 273.919189,712.098022 
	C273.919159,712.098022 274.007294,712.048645 274.274963,711.680664 
	C273.980774,711.216003 273.418884,711.119263 272.857025,711.022461 
	C272.857025,711.022461 272.937714,711.021362 273.243378,710.766907 
	C272.626984,710.056274 271.704926,709.600159 270.782867,709.144043 
	C270.782867,709.144043 270.886658,709.120667 270.904114,708.718506 
	C270.250824,708.240356 269.580109,708.164368 268.909363,708.088318 
	C268.909363,708.088318 268.987244,708.004028 269.282562,707.748779 
	C268.024841,706.694946 266.471802,705.896423 264.918793,705.097900 
	C264.918793,705.097900 265.006744,705.048462 265.272461,704.683472 
	C264.977478,704.219299 264.416779,704.119995 263.856079,704.020752 
	C263.856079,704.020752 263.939270,704.020203 264.240112,703.764282 
	C263.621643,703.053772 262.702362,702.599121 261.783051,702.144470 
	C261.783051,702.144470 261.886749,702.120789 261.903564,701.716675 
	C261.250183,701.239258 260.579987,701.166016 259.909821,701.092773 
	C259.909821,701.092773 259.991760,701.046936 260.262695,700.685547 
	C259.974152,700.222412 259.414703,700.120728 258.855225,700.019043 
	C258.855225,700.019043 258.939636,700.019043 259.240295,699.763733 
	C258.621643,699.053772 257.702362,698.599121 256.783051,698.144470 
	C256.783051,698.144470 256.886749,698.120789 256.903564,697.716675 
	C256.250153,697.239258 255.579987,697.166016 254.909805,697.092773 
	C254.909805,697.092773 254.991714,697.046936 255.262695,696.685547 
	C254.974182,696.222412 254.414703,696.120728 253.855209,696.019043 
	C253.855209,696.019043 253.939087,696.018860 254.244415,695.762207 
	C253.628174,695.055237 252.706589,694.604858 251.785004,694.154480 
	C251.785019,694.154480 251.878860,694.130737 251.911743,693.712769 
	C251.267487,693.228210 250.590347,693.161621 249.913223,693.094971 
	C249.913223,693.094971 249.996536,693.047424 250.277374,692.662598 
	C249.992386,692.196533 249.426559,692.115356 248.860733,692.034180 
	C248.860733,692.034180 248.959167,692.033447 249.220734,691.673096 
	C248.940292,691.215637 248.398315,691.118530 247.856339,691.021362 
	C247.856339,691.021362 247.934265,691.020203 248.237762,690.788025 
	C247.288483,689.753662 246.035721,688.951477 244.782974,688.149292 
	C244.782974,688.149292 244.884094,688.122864 244.902222,687.717651 
	C244.250168,687.239258 243.579987,687.166016 242.909805,687.092773 
	C242.909805,687.092773 242.991669,687.046936 243.267181,686.679810 
	C242.980804,686.215942 242.418930,686.119202 241.857040,686.022461 
	C241.857040,686.022461 241.975525,686.021973 242.170258,685.658203 
	C241.863144,685.205383 241.361298,685.116333 240.859451,685.027283 
	C240.859451,685.027283 240.956100,685.027893 241.166046,684.786743 
	C240.954117,684.376160 240.532257,684.206787 240.110397,684.037415 
M404.022278,265.586609 
	C384.296539,260.492920 365.954285,250.545334 344.961060,249.227936 
	C344.645813,246.256851 344.446930,243.617828 344.064606,241.005646 
	C343.719025,238.644623 343.172943,236.312958 342.715302,233.968338 
	C342.559479,234.011948 342.403687,234.055557 342.247894,234.099167 
	C341.762817,239.047318 341.277740,243.995453 340.778198,249.091263 
	C337.421387,249.543167 334.180817,249.572006 331.191376,250.452957 
	C318.779755,254.110565 306.331604,257.700256 294.107269,261.923859 
	C276.863342,267.881744 259.560028,270.501221 241.773071,264.810028 
	C232.756424,261.925049 223.708405,259.073578 214.884460,255.663773 
	C194.430313,247.759827 174.068771,247.444534 153.522247,255.201462 
	C145.755508,258.133636 137.808502,260.584656 129.981659,263.362061 
	C112.881332,269.430267 95.784721,269.514801 78.612839,263.653381 
	C67.608467,259.897156 56.635689,256.014832 45.496765,252.699707 
	C39.426479,250.893097 33.039154,250.151749 25.987431,248.771973 
	C27.766567,262.675354 29.382183,275.300842 30.965572,287.674500 
	C33.238342,288.088715 34.915527,288.225800 36.487190,288.707306 
	C49.978764,292.840637 63.559452,296.720337 76.902855,301.290863 
	C94.734085,307.398590 112.402863,307.762024 130.203094,301.501312 
	C137.568085,298.910919 145.067581,296.675385 152.334869,293.840088 
	C172.759232,285.871552 193.108719,285.469025 213.640533,293.438843 
	C221.220322,296.381042 229.027634,298.733673 236.710556,301.414276 
	C253.610306,307.310455 270.561035,307.840546 287.608215,302.059631 
	C297.989746,298.539185 308.336823,294.904053 318.799042,291.639862 
	C324.238892,289.942596 329.894989,288.938385 336.210297,287.441711 
	C333.849915,300.237946 331.807343,311.844604 329.461517,323.389709 
	C329.149384,324.925873 327.556824,326.906525 326.118500,327.398468 
	C314.021332,331.535583 301.745178,335.153076 289.671478,339.354095 
	C272.375061,345.372314 255.150085,345.630005 237.835190,339.710846 
	C230.766846,337.294525 223.742142,334.749939 216.665375,332.359039 
	C203.383026,327.871490 189.943359,323.445099 175.722031,326.038300 
	C166.292221,327.757812 157.056290,330.643738 147.825455,333.323914 
	C137.467163,336.331451 127.346848,340.253937 116.881126,342.773804 
	C101.062828,346.582428 85.942871,342.420715 71.041534,337.205811 
	C60.474804,333.507782 49.807079,330.098358 37.718380,326.071777 
	C41.290081,340.402100 44.393414,353.095459 47.713127,365.731995 
	C47.991386,366.791168 49.594646,367.832794 50.803062,368.264160 
	C59.563023,371.391205 68.410324,374.273468 77.172058,377.395721 
	C94.755661,383.661621 112.329254,383.780304 129.971313,377.680237 
	C139.858231,374.261658 149.751495,370.857971 159.685364,367.579315 
	C174.800125,362.590668 190.009720,362.010223 205.268112,366.986786 
	C211.745132,369.099304 218.420639,370.765259 224.642395,373.470306 
	C250.341476,384.643646 275.874451,384.760559 301.562927,373.500214 
	C306.803528,371.203064 312.408295,369.736694 318.987488,367.498779 
	C316.084778,377.095917 312.778473,385.455566 311.118652,394.130280 
	C308.748016,406.519775 301.869934,412.390350 289.735596,415.746307 
	C272.135742,420.613800 255.125275,421.693878 237.808395,415.796082 
	C230.732605,413.386169 223.664749,410.950012 216.628601,408.427277 
	C201.091827,402.856598 185.258774,398.936554 168.797424,403.170715 
	C157.879761,405.978882 147.167877,409.680511 136.522583,413.432526 
	C119.915215,419.285919 103.175011,422.806183 85.715759,417.792847 
	C77.805748,415.521545 70.005341,412.868530 61.964779,410.328552 
	C61.964779,411.015778 61.830383,411.525970 61.984264,411.925049 
	C67.124641,425.254639 72.246597,438.591949 77.538933,451.861237 
	C77.987625,452.986267 79.506516,454.238556 80.689201,454.428314 
	C89.515388,455.844238 98.601570,458.842743 107.184555,457.816895 
	C119.902451,456.296844 132.293976,451.947968 144.784088,448.650513 
	C155.200623,445.900513 165.412247,442.078125 175.977737,440.257629 
	C191.939713,437.507294 206.720093,443.535889 221.671570,448.233673 
	C234.137497,452.150543 246.806717,456.113312 259.681427,457.800293 
	C268.735657,458.986755 278.285889,456.388306 287.910156,455.451172 
	C282.704224,466.341400 277.343597,477.709442 271.842865,489.009247 
	C268.035126,496.831238 267.951904,496.740814 259.445587,496.185699 
	C245.288254,495.261871 232.142441,490.399872 219.194946,485.264771 
	C195.998276,476.064819 173.161224,475.464905 149.711060,484.672150 
	C133.563080,491.012299 117.202034,497.500977 98.673073,496.129211 
	C99.411758,497.739532 99.862114,498.932678 100.478836,500.032501 
	C105.762779,509.455688 111.238045,518.776489 116.299728,528.316956 
	C118.227768,531.950989 120.283394,532.860901 124.158928,531.503174 
	C134.968674,527.716125 145.934906,524.376465 156.749893,520.603638 
	C173.824493,514.647095 190.879852,514.026794 208.102066,519.923157 
	C220.938751,524.318054 233.836578,528.534363 247.358551,533.047607 
	C240.543060,543.487000 233.775757,553.852539 227.018219,564.203064 
	C212.245163,559.222595 198.351517,553.457092 183.005112,553.662476 
	C167.807556,553.865784 154.049316,559.327942 139.574921,564.551270 
	C147.423996,575.116882 154.845001,585.106323 162.235580,595.054749 
	C176.236038,590.999939 189.763565,590.429932 204.076172,595.046265 
	C197.040726,603.624329 190.349426,611.782837 183.508652,620.123535 
	C184.670197,621.523621 185.638031,622.853394 186.767990,624.027100 
	C198.318375,636.024292 209.537704,648.367737 221.532166,659.904724 
	C256.109344,693.162964 293.914398,722.180237 335.830353,745.741577 
	C340.788361,748.528564 344.430023,748.400757 349.328796,745.681885 
	C399.860718,717.635376 444.113312,681.610657 484.174896,640.216675 
	C490.393921,633.790833 496.332153,627.093201 502.442017,620.475952 
	C495.365784,611.873535 488.628601,603.683289 481.570465,595.102783 
	C496.016357,590.253418 509.866119,591.140930 523.781982,595.054016 
	C531.375061,584.779480 538.770508,574.772461 546.992615,563.646729 
	C533.550903,560.228821 521.338928,556.156677 508.796631,554.167664 
	C491.277222,551.389404 475.154877,558.492310 458.606171,564.237244 
	C451.775085,553.707825 445.055267,543.349915 438.400391,533.092041 
	C449.292023,529.396057 459.470581,526.287231 469.391571,522.503052 
	C489.571686,514.805725 509.744965,513.245056 530.286194,520.991882 
	C538.519897,524.097107 546.890198,526.850464 555.247009,529.616943 
	C566.611816,533.379089 566.719360,533.369141 572.661316,523.079956 
	C577.691895,514.368958 582.488892,505.523071 587.441528,496.643036 
	C581.493469,496.182434 576.022095,496.572662 571.024780,495.216278 
	C557.097534,491.436005 543.233826,487.317505 529.591187,482.618103 
	C511.245758,476.298706 493.133789,476.023285 474.883759,482.622070 
	C468.324127,484.993896 461.695740,487.176239 455.091827,489.424835 
	C444.210358,493.129883 433.264160,496.458588 421.572601,496.332520 
	C418.809875,496.302765 417.076447,495.691284 415.788849,492.903412 
	C410.490570,481.431641 404.889740,470.099854 399.441772,458.696686 
	C398.856262,457.471161 398.541779,456.116180 397.767792,453.839447 
	C419.196503,461.842194 438.928894,457.774719 458.470917,450.369019 
	C464.834412,447.957520 471.361664,445.978058 477.814453,443.802246 
	C493.976471,438.352478 510.145996,438.290161 526.311096,443.771698 
	C534.176819,446.438965 542.058838,449.063263 549.877869,451.862274 
	C567.331421,458.110107 584.937622,460.861572 603.160828,455.159729 
	C606.254700,454.191681 608.267273,452.969330 609.464111,449.748352 
	C613.801392,438.075470 618.466736,426.524750 622.961060,414.909668 
	C623.519348,413.466766 623.793823,411.914032 624.324341,409.951477 
	C618.484863,411.920624 613.293823,413.612701 608.142822,415.418732 
	C591.248169,421.342194 574.319763,421.883423 557.288513,415.978699 
	C548.030396,412.768890 538.753967,409.607056 529.438477,406.568939 
	C519.610901,403.363892 509.653412,401.083038 499.149475,401.599060 
	C484.582916,402.314667 471.213928,407.471283 457.862488,412.490662 
	C437.841309,420.017578 417.856537,423.034241 396.972656,415.855408 
	C380.216522,410.095459 380.096039,410.451202 374.658783,393.598724 
	C374.251068,392.335022 373.729736,391.106506 373.354218,389.834167 
	C371.237671,382.662598 369.149567,375.482574 366.797699,367.436218 
	C375.275574,370.395416 382.723541,372.741547 389.980682,375.576111 
	C411.033112,383.798889 432.056244,384.448395 453.248505,376.137512 
	C459.274963,373.774139 465.524872,371.984863 471.577972,369.684143 
	C490.975952,362.311157 510.401520,361.354614 530.021973,368.838013 
	C536.224976,371.203827 542.672180,372.938965 548.840454,375.384369 
	C570.018311,383.780396 591.176758,384.521240 612.559753,376.124542 
	C619.666321,373.333923 627.080933,371.326263 634.179565,368.517792 
	C636.089050,367.762329 638.241943,365.624237 638.768005,363.705444 
	C641.490540,353.774658 643.743103,343.714233 646.106812,333.686584 
	C646.604553,331.574921 646.881531,329.411255 647.457764,326.155792 
	C635.308472,330.268829 624.308960,333.989716 613.311523,337.716492 
	C599.010803,342.562561 584.461182,346.559204 569.336121,342.828217 
	C557.915771,340.011047 546.706604,336.239594 535.559998,332.434357 
	C519.791260,327.051270 503.860779,322.674744 487.224548,327.159729 
	C474.250122,330.657532 461.510010,335.070435 448.774261,339.396057 
	C432.862762,344.800354 416.894226,345.853851 400.758240,340.779938 
	C386.816132,336.395905 372.913849,331.879761 359.071686,327.192505 
	C357.795013,326.760193 356.570221,324.793579 356.200073,323.318817 
	C354.987488,318.487671 354.100006,313.568878 353.237671,308.657379 
	C352.046783,301.874298 350.992523,295.067230 349.799896,287.782684 
	C352.110626,288.156921 353.620544,288.224731 355.018677,288.655426 
	C367.865753,292.613068 380.835358,296.233887 393.493866,300.728455 
	C412.972626,307.644623 432.204437,307.830017 451.581940,300.620880 
	C459.360413,297.726990 467.298584,295.265259 475.112549,292.463196 
	C492.668762,286.167603 510.226349,285.792084 527.875610,292.067657 
	C536.165405,295.015289 544.559509,297.674072 552.818298,300.703796 
	C572.208984,307.817352 591.445312,307.629333 610.903442,300.673553 
	C625.235107,295.550354 639.842834,291.199524 655.100769,286.253906 
	C656.504456,274.798401 658.048584,262.196350 659.654175,249.093384 
	C655.274475,249.703430 651.876770,249.755234 648.740662,250.687393 
	C636.015320,254.469894 623.220703,258.104248 610.730225,262.572235 
	C591.074768,269.603210 571.701721,269.664001 552.195740,262.274170 
	C544.902039,259.510895 537.408875,257.278381 530.079346,254.604675 
	C511.877991,247.965149 493.670166,247.696365 475.382324,254.182938 
	C468.339417,256.680969 461.271515,259.108551 454.222534,261.589569 
	C438.118652,267.257599 421.811920,270.508972 404.022278,265.586609 
M632.499817,221.306778 
	C642.247864,221.306778 651.995972,221.306778 661.660828,221.306778 
	C666.811218,170.642273 659.847717,48.222675 649.813049,11.304808 
	C445.104889,11.304808 240.384644,11.304808 35.417580,11.304808 
	C24.226789,81.032135 19.151495,150.794968 23.979095,221.306778 
	C226.918076,221.306778 429.208923,221.306778 632.499817,221.306778 
z"/>
<path fill="#E2E2ED" opacity="1.000000" stroke="none" 
	d="
M662.394531,273.994690 
	C662.049866,271.239471 661.806580,268.245850 662.168762,265.327332 
	C667.286072,224.088882 668.785034,182.680283 667.518921,141.188660 
	C666.197571,97.884262 661.703491,54.858662 654.772461,12.091271 
	C654.510254,10.473263 654.097534,8.879661 653.655884,6.810843 
	C651.647766,6.810843 649.685608,6.810843 647.723450,6.810843 
	C444.396759,6.810843 241.070068,6.829572 37.743469,6.696793 
	C32.937153,6.693655 31.453259,7.871941 30.686195,12.753450 
	C23.259697,60.014931 18.709755,107.490562 17.982807,155.361252 
	C17.214554,205.952087 21.065559,256.137177 29.642221,306.366699 
	C28.811285,304.538025 27.391165,302.412109 27.032948,300.120209 
	C24.876232,286.321320 22.771851,272.508301 21.039200,258.651337 
	C19.982334,250.199020 19.469311,241.668182 18.985382,233.157074 
	C18.189680,219.162704 17.450977,205.161087 16.992140,191.152573 
	C16.471064,175.243973 15.924507,159.321243 16.064154,143.410599 
	C16.178320,130.403000 17.025633,117.384232 18.023773,104.407013 
	C19.013199,91.543152 20.577017,78.722885 21.928253,65.887634 
	C22.902229,56.635975 23.844755,47.379349 24.976353,38.146389 
	C26.202694,28.140385 27.510313,18.139486 29.125824,8.192121 
	C29.329458,6.938256 31.538166,5.892823 32.977905,5.012527 
	C33.584293,4.641766 34.606239,4.950610 35.439281,4.950610 
	C240.534286,4.950602 445.629303,4.950603 650.724304,4.950603 
	C652.367798,4.950603 654.011292,4.950603 655.842407,4.950603 
	C658.268066,21.271954 660.920898,37.262436 662.940552,53.332500 
	C664.410095,65.024712 665.360352,76.805275 665.982300,88.576027 
	C667.210144,111.815788 668.295105,135.069016 668.964050,158.330338 
	C669.414185,173.984924 669.437378,189.675461 668.933167,205.326767 
	C668.484070,219.265747 667.208008,233.186981 665.989258,247.089081 
	C665.206787,256.015045 663.867249,264.892181 662.394531,273.994690 
z"/>
<path fill="#EEEFF5" opacity="1.000000" stroke="none" 
	d="
M327.060120,747.436646 
	C329.730164,748.175415 332.891022,748.732544 335.245300,750.416931 
	C340.244904,753.994080 344.655731,753.730469 349.741089,750.533203 
	C356.200500,746.471985 363.040497,743.016052 369.894165,739.699341 
	C366.248596,742.674255 362.524261,745.414490 358.573669,747.776306 
	C354.733063,750.072144 350.426453,751.639587 346.759918,754.160278 
	C343.514496,756.391541 340.939148,755.889526 337.971558,754.051208 
	C334.435333,751.860535 330.785828,749.852783 327.060120,747.436646 
z"/>
<path fill="#E8E8F1" opacity="1.000000" stroke="none" 
	d="
M35.660809,339.377625 
	C38.059376,347.419250 40.207691,355.703674 42.494339,364.313477 
	C41.745457,363.296112 40.406216,362.063385 40.048050,360.591919 
	C38.355225,353.637207 36.930710,346.617188 35.660809,339.377625 
z"/>
<path fill="#EAEAF2" opacity="1.000000" stroke="none" 
	d="
M629.362122,413.019836 
	C629.656555,410.574036 630.118103,407.899109 630.979858,405.360016 
	C632.575562,400.658264 634.405334,396.035919 636.476746,391.324371 
	C634.447205,398.462860 632.078491,405.657440 629.362122,413.019836 
z"/>
<path fill="#EEEFF5" opacity="1.000000" stroke="none" 
	d="
M312.051941,738.429565 
	C313.105103,738.369263 314.445557,738.359985 315.429779,738.947510 
	C319.526428,741.393005 323.515778,744.018127 327.232483,746.837769 
	C322.005402,744.317078 317.090363,741.536133 312.051941,738.429565 
z"/>
<path fill="#EEEFF5" opacity="1.000000" stroke="none" 
	d="
M304.056305,733.432251 
	C306.805664,734.593384 309.675720,736.079102 312.233643,737.832031 
	C309.339996,736.651855 306.758514,735.204346 304.056305,733.432251 
z"/>
<path fill="#EEEFF5" opacity="1.000000" stroke="none" 
	d="
M378.433716,735.065125 
	C380.634460,733.154480 383.195862,731.208740 385.910187,729.685669 
	C383.640167,731.748901 381.217255,733.389465 378.433716,735.065125 
z"/>
<path fill="#EEEFF5" opacity="1.000000" stroke="none" 
	d="
M389.441864,728.058350 
	C391.288055,726.167053 393.487762,724.247070 395.882874,722.711365 
	C393.984009,724.740295 391.889679,726.384949 389.441864,728.058350 
z"/>
<path fill="#E2E3ED" opacity="1.000000" stroke="none" 
	d="
M447.414917,683.071777 
	C448.614960,681.497131 450.157410,679.900085 451.883118,678.705933 
	C450.630035,680.422302 449.193695,681.735840 447.414917,683.071777 
z"/>
<path fill="#EEEFF5" opacity="1.000000" stroke="none" 
	d="
M370.411804,740.072021 
	C371.616272,738.825012 373.170685,737.537842 374.896301,736.678345 
	C373.632294,738.081360 372.197021,739.056580 370.411804,740.072021 
z"/>
<path fill="#E2E3ED" opacity="1.000000" stroke="none" 
	d="
M440.351837,689.074646 
	C441.242615,687.829041 442.475159,686.558899 443.886047,685.699402 
	C442.940765,687.090088 441.817200,688.070068 440.351837,689.074646 
z"/>
<path fill="#EEEFF5" opacity="1.000000" stroke="none" 
	d="
M406.413330,716.065308 
	C407.261536,714.835083 408.444458,713.570801 409.856018,712.698975 
	C408.972473,714.071472 407.860260,715.051392 406.413330,716.065308 
z"/>
<path fill="#EEEFF5" opacity="1.000000" stroke="none" 
	d="
M265.032715,705.410522 
	C266.471802,705.896423 268.024841,706.694946 269.253418,707.798035 
	C267.668152,707.309448 266.407379,706.516296 265.032715,705.410522 
z"/>
<path fill="#EEEFF5" opacity="1.000000" stroke="none" 
	d="
M244.533386,688.456421 
	C246.035721,688.951477 247.288483,689.753662 248.235229,690.826904 
	C246.714066,690.319824 245.498932,689.541687 244.533386,688.456421 
z"/>
<path fill="#EEEFF5" opacity="1.000000" stroke="none" 
	d="
M419.348999,706.086060 
	C419.896271,705.182861 420.774567,704.228271 421.866180,703.686279 
	C421.279663,704.744202 420.479828,705.389465 419.348999,706.086060 
z"/>
<path fill="#E5E6EF" opacity="1.000000" stroke="none" 
	d="
M457.041656,673.137329 
	C458.112915,672.435974 459.184143,671.734558 460.403351,671.534119 
	C459.618164,672.705200 458.685059,673.375305 457.397278,673.833130 
	C457.042603,673.620911 457.041656,673.137329 457.041656,673.137329 
z"/>
<path fill="#E7E7F0" opacity="1.000000" stroke="none" 
	d="
M228.050812,674.433228 
	C228.913391,674.443420 229.877319,674.765503 230.909958,675.488892 
	C230.036499,675.508423 229.094330,675.126770 228.050812,674.433228 
z"/>
<path fill="#EEEFF5" opacity="1.000000" stroke="none" 
	d="
M274.030640,712.407837 
	C275.096893,712.513184 276.274597,712.928345 277.204803,713.734131 
	C276.018890,713.655762 275.080475,713.186768 274.030640,712.407837 
z"/>
<path fill="#E5E6EF" opacity="1.000000" stroke="none" 
	d="
M122.916702,549.379944 
	C123.718712,549.831726 124.557465,550.619568 125.177536,551.765991 
	C124.290375,551.321716 123.621910,550.518860 122.916702,549.379944 
z"/>
<path fill="#EEEFF5" opacity="1.000000" stroke="none" 
	d="
M403.370331,718.079956 
	C403.901947,717.172363 404.763123,716.218445 405.853455,715.680664 
	C405.288391,716.742432 404.494141,717.388062 403.370331,718.079956 
z"/>
<path fill="#EEEFF5" opacity="1.000000" stroke="none" 
	d="
M281.025391,717.401062 
	C282.085266,717.510010 283.257141,717.929932 284.194397,718.738281 
	C283.018982,718.655090 282.078217,718.183594 281.025391,717.401062 
z"/>
<path fill="#EEEFF5" opacity="1.000000" stroke="none" 
	d="
M399.392090,721.073364 
	C399.918732,720.148987 400.772583,719.184021 401.852661,718.659180 
	C401.292358,719.743713 400.505798,720.388184 399.392090,721.073364 
z"/>
<path fill="#EEEFF5" opacity="1.000000" stroke="none" 
	d="
M285.028534,720.405945 
	C286.137451,720.526855 287.357635,720.956909 288.258118,721.749756 
	C287.005524,721.646729 286.072662,721.180908 285.028534,720.405945 
z"/>
<path fill="#EEEFF5" opacity="1.000000" stroke="none" 
	d="
M396.383759,723.075562 
	C396.906677,722.165283 397.757751,721.212463 398.846527,720.677734 
	C398.293457,721.741577 397.502686,722.387268 396.383759,723.075562 
z"/>
<path fill="#EEEFF5" opacity="1.000000" stroke="none" 
	d="
M288.025024,722.400757 
	C289.088776,722.510742 290.264648,722.931702 291.199341,723.739014 
	C290.017792,723.654175 289.077454,723.182922 288.025024,722.400757 
z"/>
<path fill="#EEEFF5" opacity="1.000000" stroke="none" 
	d="
M295.029968,727.406982 
	C296.151855,727.532654 297.384033,727.966980 298.273376,728.755371 
	C297.000397,728.644836 296.070312,728.180237 295.029968,727.406982 
z"/>
<path fill="#EEEFF5" opacity="1.000000" stroke="none" 
	d="
M386.396362,730.070923 
	C386.918549,729.144104 387.767761,728.178589 388.848328,727.655884 
	C388.294250,728.743286 387.508820,729.387756 386.396362,730.070923 
z"/>
<path fill="#EEEFF5" opacity="1.000000" stroke="none" 
	d="
M298.029938,729.406982 
	C299.151825,729.532715 300.384003,729.967041 301.273376,730.755432 
	C300.000427,730.644836 299.070343,730.180237 298.029938,729.406982 
z"/>
<path fill="#EEEFF5" opacity="1.000000" stroke="none" 
	d="
M301.029968,731.406982 
	C302.151825,731.532654 303.384033,731.967041 304.273376,732.755371 
	C303.000427,732.644775 302.070343,732.180176 301.029968,731.406982 
z"/>
<path fill="#EEEFF5" opacity="1.000000" stroke="none" 
	d="
M375.394104,737.072754 
	C375.896545,736.173584 376.727142,735.234131 377.824890,734.690430 
	C377.302155,735.734924 376.512207,736.383667 375.394104,737.072754 
z"/>
<path fill="#E5E6EF" opacity="1.000000" stroke="none" 
	d="
M132.914536,564.372681 
	C133.764038,564.853271 134.652023,565.668274 135.236969,566.795166 
	C134.273621,566.307129 133.613327,565.507141 132.914536,564.372681 
z"/>
<path fill="#EEEFF5" opacity="1.000000" stroke="none" 
	d="
M261.536530,702.459106 
	C262.702362,702.599121 263.621643,703.053772 264.237427,703.805786 
	C263.052612,703.660095 262.171326,703.216919 261.536530,702.459106 
z"/>
<path fill="#EEEFF5" opacity="1.000000" stroke="none" 
	d="
M251.542664,694.469666 
	C252.706589,694.604858 253.628174,695.055237 254.241547,695.804077 
	C253.055679,695.663391 252.178009,695.224121 251.542664,694.469666 
z"/>
<path fill="#EEEFF5" opacity="1.000000" stroke="none" 
	d="
M428.451904,699.064331 
	C428.513092,698.369629 428.959900,697.636292 429.810883,697.028564 
	C429.755859,697.778015 429.296661,698.401855 428.451904,699.064331 
z"/>
<path fill="#EEEFF5" opacity="1.000000" stroke="none" 
	d="
M292.540009,725.466797 
	C293.725830,725.614136 294.667419,726.074463 295.263977,726.815613 
	C294.044556,726.657532 293.170166,726.218628 292.540009,725.466797 
z"/>
<path fill="#EEEFF5" opacity="1.000000" stroke="none" 
	d="
M256.536530,698.459106 
	C257.702362,698.599121 258.621643,699.053772 259.237427,699.805786 
	C258.052612,699.660095 257.171326,699.216919 256.536530,698.459106 
z"/>
<path fill="#EEEFF5" opacity="1.000000" stroke="none" 
	d="
M414.457611,710.063110 
	C414.513794,709.366821 414.955078,708.632812 415.805847,708.026428 
	C415.757782,708.777832 415.300262,709.401611 414.457611,710.063110 
z"/>
<path fill="#EEEFF5" opacity="1.000000" stroke="none" 
	d="
M270.536133,709.458496 
	C271.704926,709.600159 272.626984,710.056274 273.240906,710.807129 
	C272.051636,710.658936 271.170502,710.216003 270.536133,709.458496 
z"/>
<path fill="#EEEFF5" opacity="1.000000" stroke="none" 
	d="
M278.541656,715.468567 
	C279.714417,715.608704 280.644043,716.062988 281.250397,716.808838 
	C280.050903,716.661194 279.174713,716.221985 278.541656,715.468567 
z"/>
<path fill="#EEEFF5" opacity="1.000000" stroke="none" 
	d="
M423.451843,703.064331 
	C423.513031,702.369568 423.959839,701.636230 424.810852,701.028564 
	C424.755859,701.778015 424.296692,702.401855 423.451843,703.064331 
z"/>
<path fill="#EEEFF5" opacity="1.000000" stroke="none" 
	d="
M410.457642,713.063110 
	C410.513824,712.366882 410.955109,711.632812 411.805847,711.026428 
	C411.757812,711.777832 411.300262,712.401611 410.457642,713.063110 
z"/>
<path fill="#E5E5EF" opacity="1.000000" stroke="none" 
	d="
M495.373108,637.009277 
	C495.549225,636.133911 496.010254,635.173523 496.780396,634.655457 
	C496.612335,635.706604 496.135223,636.315491 495.373108,637.009277 
z"/>
<path fill="#E7E7F0" opacity="1.000000" stroke="none" 
	d="
M225.990692,672.370972 
	C226.863342,672.549133 227.823151,673.011658 228.343353,673.782715 
	C227.295105,673.612671 226.686478,673.134033 225.990692,672.370972 
z"/>
<path fill="#E5E6EF" opacity="1.000000" stroke="none" 
	d="
M461.249298,671.314636 
	C461.413452,670.521179 461.798706,669.480530 462.655334,668.747864 
	C462.574585,669.726379 462.022491,670.396851 461.249298,671.314636 
z"/>
<path fill="#EEEFF5" opacity="1.000000" stroke="none" 
	d="
M260.050598,701.432190 
	C260.579987,701.166016 261.250183,701.239258 261.907166,701.769714 
	C261.326447,702.075195 260.758911,701.923401 260.050598,701.432190 
z"/>
<path fill="#EEEFF5" opacity="1.000000" stroke="none" 
	d="
M243.050568,687.432129 
	C243.579987,687.166016 244.250168,687.239258 244.907166,687.769714 
	C244.326431,688.075134 243.758896,687.923340 243.050568,687.432129 
z"/>
<path fill="#EEEFF5" opacity="1.000000" stroke="none" 
	d="
M425.396210,701.473633 
	C425.612091,700.581604 426.109070,699.935974 426.847137,699.692200 
	C426.617950,700.636047 426.147644,701.178040 425.396210,701.473633 
z"/>
<path fill="#EEEFF5" opacity="1.000000" stroke="none" 
	d="
M255.050583,697.432190 
	C255.579987,697.166016 256.250153,697.239258 256.907166,697.769714 
	C256.326447,698.075195 255.758896,697.923401 255.050583,697.432190 
z"/>
<path fill="#EEEFF5" opacity="1.000000" stroke="none" 
	d="
M250.052063,693.432983 
	C250.590347,693.161621 251.267487,693.228210 251.914810,693.761047 
	C251.320297,694.075195 250.755585,693.923157 250.052063,693.432983 
z"/>
<path fill="#EEEFF5" opacity="1.000000" stroke="none" 
	d="
M430.396210,697.473633 
	C430.612030,696.581604 431.109009,695.935974 431.847137,695.692200 
	C431.617981,696.636047 431.147675,697.178040 430.396210,697.473633 
z"/>
<path fill="#EEEFF5" opacity="1.000000" stroke="none" 
	d="
M416.396240,708.473633 
	C416.612061,707.581604 417.109070,706.935974 417.847168,706.692139 
	C417.617950,707.636047 417.147644,708.178040 416.396240,708.473633 
z"/>
<path fill="#EEEFF5" opacity="1.000000" stroke="none" 
	d="
M269.049316,708.428711 
	C269.580109,708.164368 270.250824,708.240356 270.907593,708.771606 
	C270.325531,709.074219 269.757385,708.921631 269.049316,708.428711 
z"/>
<path fill="#EEEFF5" opacity="1.000000" stroke="none" 
	d="
M412.397003,711.473633 
	C412.607697,710.587280 413.100433,709.947510 413.841858,709.698059 
	C413.620026,710.632324 413.149536,711.176270 412.397003,711.473633 
z"/>
<path fill="#EEEFF5" opacity="1.000000" stroke="none" 
	d="
M277.041290,714.419312 
	C277.585693,714.162598 278.269806,714.246704 278.918304,714.778870 
	C278.315460,715.071289 277.748230,714.915649 277.041290,714.419312 
z"/>
<path fill="#E5E5EF" opacity="1.000000" stroke="none" 
	d="
M497.419067,634.962036 
	C497.128082,634.397949 497.144653,633.725464 497.625305,633.007751 
	C497.968445,633.592896 497.847534,634.223267 497.419067,634.962036 
z"/>
<path fill="#EEEFF5" opacity="1.000000" stroke="none" 
	d="
M291.040344,724.418335 
	C291.585602,724.162781 292.270782,724.247925 292.919128,724.779907 
	C292.314941,725.070862 291.747620,724.914978 291.040344,724.418335 
z"/>
<path fill="#E5E6EF" opacity="1.000000" stroke="none" 
	d="
M130.902283,561.302246 
	C131.481689,561.521912 132.109558,562.066162 132.318588,562.844543 
	C131.583405,562.594727 131.267059,562.110779 130.902283,561.302246 
z"/>
<path fill="#E5E6EF" opacity="1.000000" stroke="none" 
	d="
M128.902267,558.302246 
	C129.481659,558.521973 130.109528,559.066162 130.318573,559.844543 
	C129.583420,559.594727 129.267075,559.110779 128.902267,558.302246 
z"/>
<path fill="#E5E6EF" opacity="1.000000" stroke="none" 
	d="
M126.902260,555.302185 
	C127.481689,555.521851 128.109558,556.066101 128.318573,556.844543 
	C127.583382,556.594727 127.267036,556.110718 126.902260,555.302185 
z"/>
<path fill="#E5E6EF" opacity="1.000000" stroke="none" 
	d="
M124.902267,552.302185 
	C125.481674,552.521912 126.109543,553.066101 126.318581,553.844543 
	C125.583405,553.594727 125.267059,553.110718 124.902267,552.302185 
z"/>
<path fill="#E5E6EF" opacity="1.000000" stroke="none" 
	d="
M121.962784,547.288513 
	C122.480087,547.500122 123.033379,548.041321 123.253670,548.837585 
	C122.613373,548.601135 122.306076,548.109558 121.962784,547.288513 
z"/>
<path fill="#E2E3ED" opacity="1.000000" stroke="none" 
	d="
M456.725891,673.326538 
	C457.041656,673.137329 457.042603,673.620911 457.039062,673.862671 
	C456.885376,674.395508 456.735260,674.686523 456.332428,675.031006 
	C456.189819,674.561523 456.299957,674.038574 456.725891,673.326538 
z"/>
<path fill="#E5E6EF" opacity="1.000000" stroke="none" 
	d="
M466.321228,666.047424 
	C466.113403,665.633057 466.174744,665.141235 466.686096,664.839539 
	C466.954224,665.343140 466.772308,665.656494 466.321228,666.047424 
z"/>
<path fill="#E7E7F0" opacity="1.000000" stroke="none" 
	d="
M222.944916,669.307495 
	C223.430115,669.117432 223.992966,669.193665 224.248947,669.697144 
	C223.635559,669.940857 223.329056,669.757324 222.944916,669.307495 
z"/>
<path fill="#E5E6EF" opacity="1.000000" stroke="none" 
	d="
M463.319641,669.050293 
	C463.112030,668.572693 463.169250,668.019165 463.676300,667.760315 
	C463.945557,668.361450 463.765015,668.667847 463.319641,669.050293 
z"/>
<path fill="#E7E7F0" opacity="1.000000" stroke="none" 
	d="
M221.940735,668.297729 
	C222.404633,668.121338 222.946869,668.214478 223.219086,668.716919 
	C222.639053,668.939880 222.329071,668.753540 221.940735,668.297729 
z"/>
<path fill="#EEEFF5" opacity="1.000000" stroke="none" 
	d="
M272.940674,711.289612 
	C273.418884,711.119263 273.980774,711.216003 274.244080,711.720703 
	C273.638428,711.937988 273.331360,711.747375 272.940674,711.289612 
z"/>
<path fill="#E5E6EF" opacity="1.000000" stroke="none" 
	d="
M464.319580,668.050293 
	C464.112000,667.572693 464.169189,667.019104 464.676208,666.760254 
	C464.945496,667.361389 464.764954,667.667847 464.319580,668.050293 
z"/>
<path fill="#E5E5EF" opacity="1.000000" stroke="none" 
	d="
M491.300690,641.059082 
	C491.122437,640.576294 491.212677,640.018127 491.712402,639.760132 
	C491.937622,640.368164 491.753418,640.675964 491.300690,641.059082 
z"/>
<path fill="#E5E5EF" opacity="1.000000" stroke="none" 
	d="
M492.320038,640.050293 
	C492.112213,639.572937 492.169342,639.019958 492.676117,638.761108 
	C492.945496,639.361633 492.765259,639.668213 492.320038,640.050293 
z"/>
<path fill="#E7E7F0" opacity="1.000000" stroke="none" 
	d="
M220.944931,667.304688 
	C221.368546,667.118774 221.871780,667.203918 222.170624,667.711792 
	C221.652344,667.948303 221.338440,667.762085 220.944931,667.304688 
z"/>
<path fill="#E5E6EF" opacity="1.000000" stroke="none" 
	d="
M465.324341,667.046997 
	C465.109039,666.599182 465.159576,666.074829 465.670685,665.796631 
	C465.950897,666.351990 465.770538,666.661316 465.324341,667.046997 
z"/>
<path fill="#E5E5EF" opacity="1.000000" stroke="none" 
	d="
M493.320068,639.050293 
	C493.112244,638.573303 493.169403,638.020752 493.676208,637.761597 
	C493.945587,638.361511 493.765320,638.668091 493.320068,639.050293 
z"/>
<path fill="#E5E5EF" opacity="1.000000" stroke="none" 
	d="
M494.320068,638.050232 
	C494.112152,637.573853 494.169312,637.021973 494.676178,636.762329 
	C494.945648,637.361267 494.765411,637.667969 494.320068,638.050232 
z"/>
<path fill="#EEEFF5" opacity="1.000000" stroke="none" 
	d="
M402.319824,719.043579 
	C402.106995,718.635193 402.160187,718.141113 402.678284,717.834473 
	C402.957397,718.333923 402.771576,718.645935 402.319824,719.043579 
z"/>
<path fill="#EEEFF5" opacity="1.000000" stroke="none" 
	d="
M283.939850,719.288208 
	C284.416779,719.120056 284.977448,719.219299 285.241821,719.723633 
	C284.638214,719.937622 284.330933,719.746643 283.939850,719.288208 
z"/>
<path fill="#E7E7F0" opacity="1.000000" stroke="none" 
	d="
M219.944931,666.304688 
	C220.368561,666.118713 220.871796,666.203857 221.170624,666.711792 
	C220.652344,666.948303 220.338440,666.762085 219.944931,666.304688 
z"/>
<path fill="#E7E7F0" opacity="1.000000" stroke="none" 
	d="
M223.949890,670.317871 
	C224.425827,670.111206 224.979462,670.169128 225.239838,670.677368 
	C224.640259,670.945923 224.333923,670.764160 223.949890,670.317871 
z"/>
<path fill="#E5E5EF" opacity="1.000000" stroke="none" 
	d="
M498.023895,632.918518 
	C498.167175,633.228760 498.445740,633.184875 498.719116,632.598328 
	C498.625397,632.584167 498.440491,632.753784 498.023895,632.918518 
z"/>
<path fill="#E5E6EF" opacity="1.000000" stroke="none" 
	d="
M134.950333,567.310425 
	C135.303040,567.156433 135.745895,567.293823 136.113266,567.856995 
	C135.705353,568.055786 135.372910,567.828857 134.950333,567.310425 
z"/>
<path fill="#E7E7F0" opacity="1.000000" stroke="none" 
	d="
M218.944931,665.304688 
	C219.368561,665.118774 219.871780,665.203918 220.170624,665.711792 
	C219.652344,665.948303 219.338440,665.762085 218.944931,665.304688 
z"/>
<path fill="#E5E6EF" opacity="1.000000" stroke="none" 
	d="
M467.306671,665.055176 
	C467.119507,664.629639 467.203644,664.126221 467.710419,663.829102 
	C467.947998,664.349426 467.763000,664.663330 467.306671,665.055176 
z"/>
<path fill="#E7E7F0" opacity="1.000000" stroke="none" 
	d="
M217.955963,664.264648 
	C218.421738,664.122742 218.942444,664.260803 219.205444,664.760376 
	C218.635452,664.929443 218.323166,664.737061 217.955963,664.264648 
z"/>
<path fill="#E5E6EF" opacity="1.000000" stroke="none" 
	d="
M131.955994,563.327881 
	C132.346024,563.114685 132.815262,563.170837 133.133362,563.683228 
	C132.666534,563.958740 132.350876,563.778076 131.955994,563.327881 
z"/>
<path fill="#E5E6EF" opacity="1.000000" stroke="none" 
	d="
M468.306641,664.055176 
	C468.119476,663.629639 468.203613,663.126221 468.710388,662.829102 
	C468.947998,663.349365 468.763000,663.663330 468.306641,664.055176 
z"/>
<path fill="#E5E6EF" opacity="1.000000" stroke="none" 
	d="
M129.956345,560.328491 
	C130.329224,560.118042 130.782364,560.178528 131.113220,560.689697 
	C130.672821,560.960083 130.354721,560.779663 129.956345,560.328491 
z"/>
<path fill="#E7E7F0" opacity="1.000000" stroke="none" 
	d="
M217.314545,663.493774 
	C217.514984,663.344788 217.736404,663.496521 217.981354,663.955200 
	C217.858017,663.994751 217.634903,663.838867 217.314545,663.493774 
z"/>
<path fill="#E5E6EF" opacity="1.000000" stroke="none" 
	d="
M127.956345,557.328491 
	C128.329224,557.118103 128.782364,557.178528 129.113220,557.689697 
	C128.672821,557.960083 128.354721,557.779663 127.956345,557.328491 
z"/>
<path fill="#E5E6EF" opacity="1.000000" stroke="none" 
	d="
M469.306702,663.055176 
	C469.119507,662.629639 469.203644,662.126221 469.710449,661.829102 
	C469.948029,662.349426 469.763031,662.663391 469.306702,663.055176 
z"/>
<path fill="#E5E6EF" opacity="1.000000" stroke="none" 
	d="
M121.405014,546.473877 
	C121.405251,546.636597 121.524940,546.928955 121.884140,547.093140 
	C121.926758,546.839783 121.727036,546.719238 121.405014,546.473877 
z"/>
<path fill="#E5E6EF" opacity="1.000000" stroke="none" 
	d="
M125.956345,554.328430 
	C126.329216,554.118103 126.782364,554.178589 127.113205,554.689697 
	C126.672813,554.960083 126.354713,554.779663 125.956345,554.328430 
z"/>
<path fill="#E5E6EF" opacity="1.000000" stroke="none" 
	d="
M470.306671,662.055176 
	C470.119537,661.629639 470.203674,661.126221 470.710419,660.829102 
	C470.947968,661.349365 470.762970,661.663330 470.306671,662.055176 
z"/>
<path fill="#E5E6EF" opacity="1.000000" stroke="none" 
	d="
M471.327026,661.041504 
	C471.110016,660.690552 471.166687,660.260437 471.661163,659.908325 
	C471.932892,660.311707 471.766785,660.637024 471.327026,661.041504 
z"/>
<path fill="#E5E6EF" opacity="1.000000" stroke="none" 
	d="
M472.094116,660.024414 
	C472.000793,659.851868 472.156281,659.620605 472.597778,659.386230 
	C472.688751,659.584412 472.508453,659.778564 472.094116,660.024414 
z"/>
<path fill="#EEEFF5" opacity="1.000000" stroke="none" 
	d="
M240.945343,685.297485 
	C241.361298,685.116333 241.863144,685.205383 242.168793,685.717407 
	C241.658813,685.949463 241.345032,685.758545 240.945343,685.297485 
z"/>
<path fill="#E2E3ED" opacity="1.000000" stroke="none" 
	d="
M444.322418,686.050293 
	C444.113068,685.571045 444.168945,685.018188 444.674377,684.761230 
	C444.945160,685.363647 444.766388,685.670227 444.322418,686.050293 
z"/>
<path fill="#EEEFF5" opacity="1.000000" stroke="none" 
	d="
M241.940659,686.289551 
	C242.418930,686.119202 242.980804,686.215942 243.244080,686.720642 
	C242.638428,686.937988 242.331360,686.747375 241.940659,686.289551 
z"/>
<path fill="#E5E5EF" opacity="1.000000" stroke="none" 
	d="
M487.307098,645.055237 
	C487.119659,644.629211 487.203552,644.125732 487.710022,643.829102 
	C487.947876,644.349854 487.763184,644.663818 487.307098,645.055237 
z"/>
<path fill="#EEEFF5" opacity="1.000000" stroke="none" 
	d="
M240.083069,684.307617 
	C240.532257,684.206787 240.954117,684.376160 241.163162,684.834961 
	C240.652130,684.942200 240.353928,684.760010 240.083069,684.307617 
z"/>
<path fill="#E5E5EF" opacity="1.000000" stroke="none" 
	d="
M488.307129,644.055237 
	C488.119659,643.629211 488.203583,643.125732 488.710052,642.829102 
	C488.947906,643.349854 488.763214,643.663818 488.307129,644.055237 
z"/>
<path fill="#E2E3ED" opacity="1.000000" stroke="none" 
	d="
M439.432129,689.760376 
	C439.359772,689.480286 439.481476,689.126465 439.861755,688.897278 
	C439.979279,689.260986 439.814575,689.482605 439.432129,689.760376 
z"/>
<path fill="#EEEFF5" opacity="1.000000" stroke="none" 
	d="
M247.940903,691.289917 
	C248.398315,691.118530 248.940292,691.215637 249.218414,691.722290 
	C248.644852,691.940674 248.335159,691.749573 247.940903,691.289917 
z"/>
<path fill="#EEEFF5" opacity="1.000000" stroke="none" 
	d="
M248.944672,692.299316 
	C249.426559,692.115356 249.992386,692.196533 250.252380,692.703491 
	C249.640549,692.940979 249.334564,692.752747 248.944672,692.299316 
z"/>
<path fill="#E2E3ED" opacity="1.000000" stroke="none" 
	d="
M446.315491,684.051575 
	C446.119720,683.648438 446.196442,683.169250 446.703857,682.857971 
	C446.952362,683.342468 446.770172,683.658997 446.315491,684.051575 
z"/>
<path fill="#E5E5EF" opacity="1.000000" stroke="none" 
	d="
M486.307129,646.055237 
	C486.119690,645.629211 486.203613,645.125732 486.710083,644.829102 
	C486.947906,645.349854 486.763214,645.663818 486.307129,646.055237 
z"/>
<path fill="#EEEFF5" opacity="1.000000" stroke="none" 
	d="
M433.308167,695.047668 
	C433.148895,694.765503 433.269501,694.390686 433.794800,693.994995 
	C433.995697,694.301025 433.791901,694.627991 433.308167,695.047668 
z"/>
<path fill="#EEEFF5" opacity="1.000000" stroke="none" 
	d="
M432.319824,696.043579 
	C432.106995,695.635132 432.160156,695.141052 432.678284,694.834473 
	C432.957428,695.333984 432.771606,695.645996 432.319824,696.043579 
z"/>
<path fill="#EEEFF5" opacity="1.000000" stroke="none" 
	d="
M253.939102,696.286743 
	C254.414703,696.120728 254.974182,696.222412 255.239594,696.726379 
	C254.638016,696.937256 254.330505,696.745850 253.939102,696.286743 
z"/>
<path fill="#E2E3ED" opacity="1.000000" stroke="none" 
	d="
M445.329712,685.045288 
	C445.113190,684.630981 445.164886,684.141296 445.675568,683.841187 
	C445.955658,684.343872 445.776825,684.656921 445.329712,685.045288 
z"/>
<path fill="#E2E3ED" opacity="1.000000" stroke="none" 
	d="
M452.322327,679.050354 
	C452.113098,678.570740 452.169098,678.017700 452.674438,677.760864 
	C452.945099,678.363708 452.766327,678.670288 452.322327,679.050354 
z"/>
<path fill="#E2E3ED" opacity="1.000000" stroke="none" 
	d="
M453.329407,678.045532 
	C453.112488,677.626343 453.163605,677.131958 453.674194,676.834961 
	C453.954926,677.345032 453.776184,677.657715 453.329407,678.045532 
z"/>
<path fill="#E2E3ED" opacity="1.000000" stroke="none" 
	d="
M454.309631,677.055298 
	C454.120514,676.626648 454.203033,676.122498 454.708130,675.828247 
	C454.947540,676.352051 454.764374,676.665955 454.309631,677.055298 
z"/>
<path fill="#EEEFF5" opacity="1.000000" stroke="none" 
	d="
M427.320129,700.043396 
	C427.107788,699.639954 427.161713,699.150696 427.679901,698.840820 
	C427.958221,699.332642 427.772308,699.645142 427.320129,700.043396 
z"/>
<path fill="#EEEFF5" opacity="1.000000" stroke="none" 
	d="
M258.939087,700.286743 
	C259.414703,700.120728 259.974152,700.222412 260.239563,700.726379 
	C259.638031,700.937256 259.330505,700.745850 258.939087,700.286743 
z"/>
<path fill="#E2E3ED" opacity="1.000000" stroke="none" 
	d="
M455.322418,676.046997 
	C455.119293,675.668762 455.189514,675.214111 455.698700,674.886292 
	C455.957031,675.332275 455.776398,675.651367 455.322418,676.046997 
z"/>
<path fill="#E5E5EF" opacity="1.000000" stroke="none" 
	d="
M485.266235,647.045471 
	C485.122894,646.578186 485.259796,646.057312 485.758484,645.795166 
	C485.928986,646.366516 485.737762,646.679199 485.266235,647.045471 
z"/>
<path fill="#E5E5EF" opacity="1.000000" stroke="none" 
	d="
M484.489807,647.691895 
	C484.338196,647.488770 484.480560,647.253418 484.941010,647.009766 
	C484.992554,647.157043 484.834106,647.376404 484.489807,647.691895 
z"/>
<path fill="#EEEFF5" opacity="1.000000" stroke="none" 
	d="
M422.319824,704.043579 
	C422.106995,703.635193 422.160156,703.141113 422.678314,702.834473 
	C422.957458,703.333984 422.771637,703.645996 422.319824,704.043579 
z"/>
<path fill="#EEEFF5" opacity="1.000000" stroke="none" 
	d="
M263.939819,704.288208 
	C264.416779,704.119995 264.977478,704.219299 265.241821,704.723633 
	C264.638184,704.937683 264.330902,704.746704 263.939819,704.288208 
z"/>
<path fill="#E5E5EF" opacity="1.000000" stroke="none" 
	d="
M489.307129,643.055237 
	C489.119659,642.629211 489.203583,642.125732 489.710083,641.829102 
	C489.947937,642.349854 489.763245,642.663818 489.307129,643.055237 
z"/>
<path fill="#E5E5EF" opacity="1.000000" stroke="none" 
	d="
M490.307129,642.055237 
	C490.119690,641.629211 490.203583,641.125732 490.710022,640.829102 
	C490.947876,641.349854 490.763153,641.663818 490.307129,642.055237 
z"/>
<path fill="#EEEFF5" opacity="1.000000" stroke="none" 
	d="
M418.321228,707.042664 
	C418.111969,706.663330 418.170685,706.197021 418.687988,705.869873 
	C418.960785,706.324585 418.775024,706.640076 418.321228,707.042664 
z"/>
<path fill="#E7E7F0" opacity="1.000000" stroke="none" 
	d="
M224.949875,671.317749 
	C225.426346,671.111145 225.980499,671.169128 226.240570,671.677368 
	C225.640182,671.945862 225.333878,671.764099 224.949875,671.317749 
z"/>
<path fill="#FEFEFE" opacity="1.000000" stroke="none" 
	d="
M404.423279,265.696594 
	C421.811920,270.508972 438.118652,267.257599 454.222534,261.589569 
	C461.271515,259.108551 468.339417,256.680969 475.382324,254.182938 
	C493.670166,247.696365 511.877991,247.965149 530.079346,254.604675 
	C537.408875,257.278381 544.902039,259.510895 552.195740,262.274170 
	C571.701721,269.664001 591.074768,269.603210 610.730225,262.572235 
	C623.220703,258.104248 636.015320,254.469894 648.740662,250.687393 
	C651.876770,249.755234 655.274475,249.703430 659.654175,249.093384 
	C658.048584,262.196350 656.504456,274.798401 655.100769,286.253906 
	C639.842834,291.199524 625.235107,295.550354 610.903442,300.673553 
	C591.445312,307.629333 572.208984,307.817352 552.818298,300.703796 
	C544.559509,297.674072 536.165405,295.015289 527.875610,292.067657 
	C510.226349,285.792084 492.668762,286.167603 475.112549,292.463196 
	C467.298584,295.265259 459.360413,297.726990 451.581940,300.620880 
	C432.204437,307.830017 412.972626,307.644623 393.493866,300.728455 
	C380.835358,296.233887 367.865753,292.613068 355.018677,288.655426 
	C353.620544,288.224731 352.110626,288.156921 349.799896,287.782684 
	C350.992523,295.067230 352.046783,301.874298 353.237671,308.657379 
	C354.100006,313.568878 354.987488,318.487671 356.200073,323.318817 
	C356.570221,324.793579 357.795013,326.760193 359.071686,327.192505 
	C372.913849,331.879761 386.816132,336.395905 400.758240,340.779938 
	C416.894226,345.853851 432.862762,344.800354 448.774261,339.396057 
	C461.510010,335.070435 474.250122,330.657532 487.224548,327.159729 
	C503.860779,322.674744 519.791260,327.051270 535.559998,332.434357 
	C546.706604,336.239594 557.915771,340.011047 569.336121,342.828217 
	C584.461182,346.559204 599.010803,342.562561 613.311523,337.716492 
	C624.308960,333.989716 635.308472,330.268829 647.457764,326.155792 
	C646.881531,329.411255 646.604553,331.574921 646.106812,333.686584 
	C643.743103,343.714233 641.490540,353.774658 638.768005,363.705444 
	C638.241943,365.624237 636.089050,367.762329 634.179565,368.517792 
	C627.080933,371.326263 619.666321,373.333923 612.559753,376.124542 
	C591.176758,384.521240 570.018311,383.780396 548.840454,375.384369 
	C542.672180,372.938965 536.224976,371.203827 530.021973,368.838013 
	C510.401520,361.354614 490.975952,362.311157 471.577972,369.684143 
	C465.524872,371.984863 459.274963,373.774139 453.248505,376.137512 
	C432.056244,384.448395 411.033112,383.798889 389.980682,375.576111 
	C382.723541,372.741547 375.275574,370.395416 366.797699,367.436218 
	C369.149567,375.482574 371.237671,382.662598 373.354218,389.834167 
	C373.729736,391.106506 374.251068,392.335022 374.658783,393.598724 
	C380.096039,410.451202 380.216522,410.095459 396.972656,415.855408 
	C417.856537,423.034241 437.841309,420.017578 457.862488,412.490662 
	C471.213928,407.471283 484.582916,402.314667 499.149475,401.599060 
	C509.653412,401.083038 519.610901,403.363892 529.438477,406.568939 
	C538.753967,409.607056 548.030396,412.768890 557.288513,415.978699 
	C574.319763,421.883423 591.248169,421.342194 608.142822,415.418732 
	C613.293823,413.612701 618.484863,411.920624 624.324341,409.951477 
	C623.793823,411.914032 623.519348,413.466766 622.961060,414.909668 
	C618.466736,426.524750 613.801392,438.075470 609.464111,449.748352 
	C608.267273,452.969330 606.254700,454.191681 603.160828,455.159729 
	C584.937622,460.861572 567.331421,458.110107 549.877869,451.862274 
	C542.058838,449.063263 534.176819,446.438965 526.311096,443.771698 
	C510.145996,438.290161 493.976471,438.352478 477.814453,443.802246 
	C471.361664,445.978058 464.834412,447.957520 458.470917,450.369019 
	C438.928894,457.774719 419.196503,461.842194 397.767792,453.839447 
	C398.541779,456.116180 398.856262,457.471161 399.441772,458.696686 
	C404.889740,470.099854 410.490570,481.431641 415.788849,492.903412 
	C417.076447,495.691284 418.809875,496.302765 421.572601,496.332520 
	C433.264160,496.458588 444.210358,493.129883 455.091827,489.424835 
	C461.695740,487.176239 468.324127,484.993896 474.883759,482.622070 
	C493.133789,476.023285 511.245758,476.298706 529.591187,482.618103 
	C543.233826,487.317505 557.097534,491.436005 571.024780,495.216278 
	C576.022095,496.572662 581.493469,496.182434 587.441528,496.643036 
	C582.488892,505.523071 577.691895,514.368958 572.661316,523.079956 
	C566.719360,533.369141 566.611816,533.379089 555.247009,529.616943 
	C546.890198,526.850464 538.519897,524.097107 530.286194,520.991882 
	C509.744965,513.245056 489.571686,514.805725 469.391571,522.503052 
	C459.470581,526.287231 449.292023,529.396057 438.400391,533.092041 
	C445.055267,543.349915 451.775085,553.707825 458.606171,564.237244 
	C475.154877,558.492310 491.277222,551.389404 508.796631,554.167664 
	C521.338928,556.156677 533.550903,560.228821 546.992615,563.646729 
	C538.770508,574.772461 531.375061,584.779480 523.781982,595.054016 
	C509.866119,591.140930 496.016357,590.253418 481.570465,595.102783 
	C488.628601,603.683289 495.365784,611.873535 502.442017,620.475952 
	C496.332153,627.093201 490.393921,633.790833 484.174896,640.216675 
	C444.113312,681.610657 399.860718,717.635376 349.328796,745.681885 
	C344.430023,748.400757 340.788361,748.528564 335.830353,745.741577 
	C293.914398,722.180237 256.109344,693.162964 221.532166,659.904724 
	C209.537704,648.367737 198.318375,636.024292 186.767990,624.027100 
	C185.638031,622.853394 184.670197,621.523621 183.508652,620.123535 
	C190.349426,611.782837 197.040726,603.624329 204.076172,595.046265 
	C189.763565,590.429932 176.236038,590.999939 162.235580,595.054749 
	C154.845001,585.106323 147.423996,575.116882 139.574921,564.551270 
	C154.049316,559.327942 167.807556,553.865784 183.005112,553.662476 
	C198.351517,553.457092 212.245163,559.222595 227.018219,564.203064 
	C233.775757,553.852539 240.543060,543.487000 247.358551,533.047607 
	C233.836578,528.534363 220.938751,524.318054 208.102066,519.923157 
	C190.879852,514.026794 173.824493,514.647095 156.749893,520.603638 
	C145.934906,524.376465 134.968674,527.716125 124.158928,531.503174 
	C120.283394,532.860901 118.227768,531.950989 116.299728,528.316956 
	C111.238045,518.776489 105.762779,509.455688 100.478836,500.032501 
	C99.862114,498.932678 99.411758,497.739532 98.673073,496.129211 
	C117.202034,497.500977 133.563080,491.012299 149.711060,484.672150 
	C173.161224,475.464905 195.998276,476.064819 219.194946,485.264771 
	C232.142441,490.399872 245.288254,495.261871 259.445587,496.185699 
	C267.951904,496.740814 268.035126,496.831238 271.842865,489.009247 
	C277.343597,477.709442 282.704224,466.341400 287.910156,455.451172 
	C278.285889,456.388306 268.735657,458.986755 259.681427,457.800293 
	C246.806717,456.113312 234.137497,452.150543 221.671570,448.233673 
	C206.720093,443.535889 191.939713,437.507294 175.977737,440.257629 
	C165.412247,442.078125 155.200623,445.900513 144.784088,448.650513 
	C132.293976,451.947968 119.902451,456.296844 107.184555,457.816895 
	C98.601570,458.842743 89.515388,455.844238 80.689201,454.428314 
	C79.506516,454.238556 77.987625,452.986267 77.538933,451.861237 
	C72.246597,438.591949 67.124641,425.254639 61.984264,411.925049 
	C61.830383,411.525970 61.964779,411.015778 61.964779,410.328552 
	C70.005341,412.868530 77.805748,415.521545 85.715759,417.792847 
	C103.175011,422.806183 119.915215,419.285919 136.522583,413.432526 
	C147.167877,409.680511 157.879761,405.978882 168.797424,403.170715 
	C185.258774,398.936554 201.091827,402.856598 216.628601,408.427277 
	C223.664749,410.950012 230.732605,413.386169 237.808395,415.796082 
	C255.125275,421.693878 272.135742,420.613800 289.735596,415.746307 
	C301.869934,412.390350 308.748016,406.519775 311.118652,394.130280 
	C312.778473,385.455566 316.084778,377.095917 318.987488,367.498779 
	C312.408295,369.736694 306.803528,371.203064 301.562927,373.500214 
	C275.874451,384.760559 250.341476,384.643646 224.642395,373.470306 
	C218.420639,370.765259 211.745132,369.099304 205.268112,366.986786 
	C190.009720,362.010223 174.800125,362.590668 159.685364,367.579315 
	C149.751495,370.857971 139.858231,374.261658 129.971313,377.680237 
	C112.329254,383.780304 94.755661,383.661621 77.172058,377.395721 
	C68.410324,374.273468 59.563023,371.391205 50.803062,368.264160 
	C49.594646,367.832794 47.991386,366.791168 47.713127,365.731995 
	C44.393414,353.095459 41.290081,340.402100 37.718380,326.071777 
	C49.807079,330.098358 60.474804,333.507782 71.041534,337.205811 
	C85.942871,342.420715 101.062828,346.582428 116.881126,342.773804 
	C127.346848,340.253937 137.467163,336.331451 147.825455,333.323914 
	C157.056290,330.643738 166.292221,327.757812 175.722031,326.038300 
	C189.943359,323.445099 203.383026,327.871490 216.665375,332.359039 
	C223.742142,334.749939 230.766846,337.294525 237.835190,339.710846 
	C255.150085,345.630005 272.375061,345.372314 289.671478,339.354095 
	C301.745178,335.153076 314.021332,331.535583 326.118500,327.398468 
	C327.556824,326.906525 329.149384,324.925873 329.461517,323.389709 
	C331.807343,311.844604 333.849915,300.237946 336.210297,287.441711 
	C329.894989,288.938385 324.238892,289.942596 318.799042,291.639862 
	C308.336823,294.904053 297.989746,298.539185 287.608215,302.059631 
	C270.561035,307.840546 253.610306,307.310455 236.710556,301.414276 
	C229.027634,298.733673 221.220322,296.381042 213.640533,293.438843 
	C193.108719,285.469025 172.759232,285.871552 152.334869,293.840088 
	C145.067581,296.675385 137.568085,298.910919 130.203094,301.501312 
	C112.402863,307.762024 94.734085,307.398590 76.902855,301.290863 
	C63.559452,296.720337 49.978764,292.840637 36.487190,288.707306 
	C34.915527,288.225800 33.238342,288.088715 30.965572,287.674500 
	C29.382183,275.300842 27.766567,262.675354 25.987431,248.771973 
	C33.039154,250.151749 39.426479,250.893097 45.496765,252.699707 
	C56.635689,256.014832 67.608467,259.897156 78.612839,263.653381 
	C95.784721,269.514801 112.881332,269.430267 129.981659,263.362061 
	C137.808502,260.584656 145.755508,258.133636 153.522247,255.201462 
	C174.068771,247.444534 194.430313,247.759827 214.884460,255.663773 
	C223.708405,259.073578 232.756424,261.925049 241.773071,264.810028 
	C259.560028,270.501221 276.863342,267.881744 294.107269,261.923859 
	C306.331604,257.700256 318.779755,254.110565 331.191376,250.452957 
	C334.180817,249.572006 337.421387,249.543167 340.778198,249.091263 
	C341.277740,243.995453 341.762817,239.047318 342.247894,234.099167 
	C342.403687,234.055557 342.559479,234.011948 342.715302,233.968338 
	C343.172943,236.312958 343.719025,238.644623 344.064606,241.005646 
	C344.446930,243.617828 344.645813,246.256851 344.961060,249.227936 
	C365.954285,250.545334 384.296539,260.492920 404.423279,265.696594 
M415.677032,586.982605 
	C404.175232,550.964783 372.068237,530.271790 334.932465,534.942627 
	C298.689606,539.501160 270.524414,571.843323 271.730438,607.517700 
	C273.020477,645.677368 301.941437,676.204468 339.279358,678.818054 
	C390.054535,682.372253 427.999451,637.270447 415.677032,586.982605 
z"/>
<path fill="#FEFEFF" opacity="1.000000" stroke="none" 
	d="
M631.999756,221.306778 
	C429.208923,221.306778 226.918076,221.306778 23.979095,221.306778 
	C19.151495,150.794968 24.226789,81.032135 35.417580,11.304808 
	C240.384644,11.304808 445.104889,11.304808 649.813049,11.304808 
	C659.847717,48.222675 666.811218,170.642273 661.660828,221.306778 
	C651.995972,221.306778 642.247864,221.306778 631.999756,221.306778 
M620.911926,99.696220 
	C611.191772,61.224876 577.277283,38.464111 537.879150,43.971176 
	C497.547913,49.608677 469.690308,89.372704 477.636932,129.196182 
	C484.482361,163.501129 517.106384,190.660263 556.882324,187.129654 
	C599.202698,183.373154 630.276001,141.953720 620.911926,99.696220 
M115.126381,184.477631 
	C124.665253,185.321014 134.282135,187.393814 143.729446,186.794327 
	C183.982635,184.240067 214.912796,144.890915 208.645737,105.092865 
	C202.321228,64.929962 165.608261,37.896667 125.447403,43.830463 
	C91.717842,48.814034 65.861778,75.893974 63.178944,109.046349 
	C60.421383,143.122101 81.438873,173.965744 115.126381,184.477631 
M298.954529,57.414402 
	C276.523407,75.019684 266.650879,98.029648 270.638519,126.259575 
	C275.839355,163.078110 310.132935,190.634598 349.829407,187.144760 
	C392.928192,183.355804 423.836823,141.951263 414.318451,99.937859 
	C402.691254,48.616261 343.198120,26.357216 298.954529,57.414402 
z"/>
<path fill="#132968" opacity="1.000000" stroke="none" 
	d="
M415.776642,587.378235 
	C427.999451,637.270447 390.054535,682.372253 339.279358,678.818054 
	C301.941437,676.204468 273.020477,645.677368 271.730438,607.517700 
	C270.524414,571.843323 298.689606,539.501160 334.932465,534.942627 
	C372.068237,530.271790 404.175232,550.964783 415.776642,587.378235 
z"/>
<path fill="#132968" opacity="1.000000" stroke="none" 
	d="
M620.963074,100.118515 
	C630.276001,141.953720 599.202698,183.373154 556.882324,187.129654 
	C517.106384,190.660263 484.482361,163.501129 477.636932,129.196182 
	C469.690308,89.372704 497.547913,49.608677 537.879150,43.971176 
	C577.277283,38.464111 611.191772,61.224876 620.963074,100.118515 
z"/>
<path fill="#132968" opacity="1.000000" stroke="none" 
	d="
M114.751030,184.328186 
	C81.438873,173.965744 60.421383,143.122101 63.178944,109.046349 
	C65.861778,75.893974 91.717842,48.814034 125.447403,43.830463 
	C165.608261,37.896667 202.321228,64.929962 208.645737,105.092865 
	C214.912796,144.890915 183.982635,184.240067 143.729446,186.794327 
	C134.282135,187.393814 124.665253,185.321014 114.751030,184.328186 
z"/>
<path fill="#132968" opacity="1.000000" stroke="none" 
	d="
M299.247131,57.204208 
	C343.198120,26.357216 402.691254,48.616261 414.318451,99.937859 
	C423.836823,141.951263 392.928192,183.355804 349.829407,187.144760 
	C310.132935,190.634598 275.839355,163.078110 270.638519,126.259575 
	C266.650879,98.029648 276.523407,75.019684 299.247131,57.204208 
z"/>
</svg>