<svg version="1.1" id="Layer_1" xmlns="http://www.w3.org/2000/svg" xmlns:xlink="http://www.w3.org/1999/xlink" x="0px" y="0px"
	 width="100%" viewBox="0 0 213 237" enable-background="new 0 0 213 237" xml:space="preserve" class="w-8 h-8">
<path fill="#FDFDFE" opacity="1.000000" stroke="none" 
	d="
M1.000000,65.000000 
	C1.000000,43.333336 1.000000,22.166670 1.000000,1.000003 
	C71.999992,1.000002 142.999985,1.000002 214.000000,1.000001 
	C214.000000,79.999992 214.000000,158.999985 214.000000,237.999969 
	C143.000015,237.999985 72.000031,237.999985 1.000022,238.000000 
	C1.000000,180.500000 1.000000,123.000000 1.000000,65.000000 
M12.986224,106.561935 
	C13.131253,106.822029 13.276283,107.082123 13.421312,107.342216 
	C13.304809,106.880066 13.188304,106.417923 12.967913,105.392937 
	C12.653036,105.075424 12.338160,104.757919 12.023283,104.440407 
	C11.832226,104.644600 11.641169,104.848785 11.450109,105.052979 
	C11.935621,105.399261 12.421133,105.745544 12.986224,106.561935 
M140.708954,211.004135 
	C141.315460,210.672470 141.921982,210.340805 142.528488,210.009140 
	C142.230774,209.728958 141.933060,209.448776 141.635345,209.168594 
	C141.077698,209.769455 140.520035,210.370316 139.692993,211.101685 
	C139.804214,211.079254 139.915436,211.056824 140.708954,211.004135 
M135.209305,214.969055 
	C134.461548,215.634171 133.713791,216.299301 132.313980,217.045288 
	C131.611053,217.704071 130.908112,218.362869 130.205170,219.021652 
	C130.624176,219.334534 131.043167,219.647415 131.462173,219.960297 
	C131.985336,218.984222 132.508499,218.008148 133.721085,217.000854 
	C134.518631,216.373886 135.316177,215.746918 136.665298,214.979889 
	C136.967255,214.649124 137.269226,214.318359 137.571198,213.987610 
	C137.358566,213.801819 137.145935,213.616043 136.933304,213.430252 
	C136.587646,213.920090 136.241974,214.409927 135.209305,214.969055 
M83.102036,219.304657 
	C83.193291,219.348999 83.284538,219.393341 83.375793,219.437683 
	C83.262306,219.282669 83.148819,219.127670 82.956017,218.320587 
	C82.299675,217.619537 81.643333,216.918472 80.986992,216.217407 
	C80.680779,216.637787 80.374573,217.058182 80.068359,217.478561 
	C81.035736,217.998566 82.003120,218.518570 83.102036,219.304657 
M68.105209,206.672623 
	C69.036980,207.162399 69.968758,207.652176 70.900528,208.141953 
	C71.077156,207.699707 71.253777,207.257462 71.430397,206.815201 
	C70.289444,206.540955 69.148483,206.266708 67.988121,205.251358 
	C66.994797,204.498184 66.001472,203.745010 64.994621,202.255188 
	C64.158752,200.821686 63.322880,199.388184 62.487007,197.954697 
	C61.891483,198.461914 61.295963,198.969131 60.700439,199.476349 
	C62.130936,200.653748 63.561428,201.831146 65.065437,203.686249 
	C66.041229,204.460144 67.017029,205.234024 68.105209,206.672623 
M167.130005,181.063629 
	C166.302460,182.612488 165.474930,184.161331 163.800934,185.603287 
	C161.513626,185.346268 159.226303,185.089264 156.542923,184.376678 
	C155.689941,184.599731 154.836975,184.822769 153.247009,184.993530 
	C152.767578,185.882858 151.658249,187.096985 151.919800,187.604263 
	C152.950470,189.603302 154.411896,191.380264 155.260132,193.945328 
	C155.212814,194.999619 155.165512,196.053909 155.118195,197.108200 
	C155.373718,197.175385 155.629242,197.242554 155.884766,197.309738 
	C156.256592,196.564255 156.628418,195.818787 157.583725,194.737961 
	C159.918427,191.841812 162.253113,188.945663 165.279953,185.827408 
	C166.223328,184.256683 167.166687,182.685974 168.726212,180.952225 
	C169.486542,179.742828 170.246887,178.533417 171.548874,176.876984 
	C173.640091,173.280563 175.731323,169.684128 178.468872,165.793839 
	C179.966507,163.159286 181.464127,160.524719 183.307663,157.288681 
	C185.270691,153.343079 187.352875,149.448135 189.074448,145.399841 
	C189.347763,144.757126 188.095337,142.623169 187.382904,142.536362 
	C181.454773,141.814102 175.487823,141.410477 169.592651,140.952164 
	C169.592651,140.952164 169.665619,140.950516 169.050476,140.397537 
	C167.199524,139.901810 165.348587,139.406082 163.558243,138.949615 
	C163.558243,138.949615 163.630371,138.946426 163.019577,138.462509 
	C160.514908,138.027466 158.010239,137.592422 154.717087,137.068207 
	C153.801208,137.407166 152.885315,137.746140 151.257584,138.099152 
	C149.877304,138.414108 148.497040,138.729065 146.439804,139.072815 
	C145.929749,139.461533 145.419693,139.850266 144.226639,140.362869 
	C142.200851,140.927399 140.175064,141.491943 137.418716,142.021149 
	C136.594589,142.395981 135.770462,142.770813 134.030594,143.105820 
	C130.980362,143.092804 127.930122,143.079788 125.200172,142.788879 
	C125.010986,142.658844 124.821808,142.528824 124.632622,142.398788 
	C124.755394,142.600998 124.878174,142.803192 124.958397,143.737961 
	C131.498734,156.850555 127.319054,157.345428 144.469574,152.036789 
	C145.418762,151.742981 146.363235,151.422226 147.283798,151.049545 
	C153.600342,148.492157 159.833160,148.816681 166.220612,151.048843 
	C171.047195,152.735519 176.077667,153.838776 181.347687,155.621613 
	C181.662537,155.781525 181.977386,155.941422 182.239563,156.587402 
	C182.239563,156.587402 181.982620,157.003342 181.431854,157.411194 
	C179.954529,160.263321 178.477203,163.115463 176.199203,166.128647 
	C173.305878,165.390900 170.412537,164.653152 167.572678,163.954895 
	C167.572678,163.954895 167.638779,163.948105 167.033936,163.332535 
	C164.773972,162.853882 162.513992,162.375244 160.318909,161.924118 
	C160.318909,161.924118 160.388763,161.914780 159.755035,161.374329 
	C156.219193,161.601501 152.683334,161.828690 148.485031,162.066071 
	C147.972244,162.425659 147.459457,162.785248 146.235397,163.266296 
	C143.219589,164.342316 140.203766,165.418335 136.870987,166.607437 
	C139.110672,169.974670 141.176743,173.080872 142.663513,175.316132 
	C148.519821,174.461670 153.553467,172.997391 158.501633,173.244568 
	C162.217773,173.430237 165.824081,175.814850 169.002289,177.543976 
	C168.629761,178.661896 168.257233,179.779800 167.130005,181.063629 
M193.628708,135.608612 
	C194.069656,133.998779 194.510605,132.388947 194.951553,130.779129 
	C194.386810,130.682129 193.822083,130.585144 193.257339,130.488144 
	C193.138885,132.292526 193.020447,134.096924 192.246033,136.083313 
	C191.478683,137.595963 190.711334,139.108597 189.943985,140.621246 
	C190.374222,140.792480 190.804474,140.963715 191.234711,141.134949 
	C191.862930,139.458511 192.491165,137.782074 193.628708,135.608612 
M200.099121,113.326630 
	C200.195114,113.368599 200.291122,113.410568 200.387115,113.452530 
	C200.279160,113.285873 200.171204,113.119209 200.427521,112.423195 
	C201.300369,110.271629 202.173218,108.120056 203.046066,105.968491 
	C199.457352,107.454926 198.570786,109.866653 200.099121,113.326630 
M7.882979,65.168373 
	C7.882979,58.665604 7.882979,52.162834 7.882979,45.660065 
	C7.474366,45.630547 7.065753,45.601032 6.657139,45.571514 
	C6.418580,50.002514 6.021307,54.432941 6.005384,58.864738 
	C5.996842,61.242348 6.643901,63.622318 6.845187,66.875565 
	C6.963548,69.231216 7.081910,71.586861 7.097016,74.676926 
	C7.126364,75.904915 7.155712,77.132912 7.079121,79.238869 
	C7.542761,80.977699 8.006400,82.716522 8.470040,84.455353 
	C9.083014,84.192741 9.695990,83.930122 10.308964,83.667511 
	C9.547095,82.169388 8.785227,80.671272 8.683440,78.855881 
	C13.087583,79.762642 17.678200,80.159882 21.854769,81.688446 
	C29.217865,84.383240 36.433277,84.966820 43.592846,81.695023 
	C53.078796,77.360115 62.329937,77.431847 71.824722,81.732597 
	C78.783157,84.884491 85.954269,84.614960 93.092308,81.805855 
	C96.145935,80.604141 99.369560,79.834396 103.336037,78.947327 
	C104.574150,78.341545 105.812271,77.735764 107.012726,76.925270 
	C107.012726,76.925270 106.955734,76.725075 107.668579,77.005135 
	C111.071854,78.182091 114.587166,79.110306 117.857109,80.583267 
	C127.167976,84.777374 136.320206,84.840157 145.688522,80.666168 
	C152.079987,77.818497 158.912018,76.743233 165.407944,80.056953 
	C179.642960,87.318520 192.767654,81.774178 206.721359,76.774574 
	C206.808350,75.517372 206.895340,74.260162 207.215393,72.353508 
	C207.152649,71.904579 207.089905,71.455643 207.239380,70.340599 
	C207.352127,69.888351 207.464859,69.436111 208.022873,68.285431 
	C208.022873,60.146587 208.022873,52.007744 208.022873,43.868900 
	C207.356201,43.878658 206.689514,43.888420 206.022842,43.898178 
	C206.022842,52.276955 206.022842,60.655731 205.944031,69.407089 
	C205.944031,69.407089 205.883072,69.782997 204.963516,69.701347 
	C185.966797,69.692581 166.969986,69.648064 147.973373,69.687424 
	C134.985794,69.714340 121.998459,69.858223 108.265564,69.763947 
	C107.504944,69.825615 106.744324,69.887276 105.074928,69.708588 
	C72.779823,69.694916 40.484718,69.681244 8.119095,68.955956 
	C8.021825,68.010460 7.924555,67.064964 7.882979,65.168373 
M51.779697,184.900391 
	C50.450085,183.977112 49.120468,183.053833 47.790855,182.130554 
	C47.182018,182.803253 46.573181,183.475952 45.964344,184.148651 
	C47.549644,185.100067 49.134949,186.051468 50.961517,187.659302 
	C53.094620,190.216309 55.227722,192.773315 57.059788,194.969452 
	C59.388229,191.710815 61.407906,188.884277 63.944443,185.334396 
	C61.102318,185.167465 59.037586,185.046188 56.672276,184.489120 
	C56.112835,184.665329 55.553398,184.841522 54.353973,184.991455 
	C53.718967,185.054214 53.083961,185.116974 51.779697,184.900391 
M10.778135,5.407914 
	C10.636442,6.414883 10.494749,7.421852 10.353056,8.428821 
	C10.796637,8.453560 11.240216,8.478299 11.683797,8.503038 
	C11.790420,7.102030 11.897042,5.701023 12.905038,4.028334 
	C74.616966,4.023005 136.328888,4.016009 198.040817,4.023553 
	C199.359879,4.023715 200.678925,4.191117 202.013977,4.935406 
	C202.716766,5.827602 203.419556,6.719798 204.122345,7.611993 
	C204.493500,7.304482 204.864655,6.996972 205.235794,6.689461 
	C204.558151,5.815835 203.880508,4.942211 202.814972,3.244650 
	C201.332779,3.133156 199.850616,2.924553 198.368393,2.924156 
	C137.386917,2.907813 76.405449,2.909825 15.423977,2.912839 
	C14.258542,2.912896 13.048099,2.775953 11.948592,3.056019 
	C11.471517,3.177539 11.222829,4.195687 10.778135,5.407914 
M73.109268,165.026749 
	C66.633415,163.758713 60.157570,162.490677 52.860981,161.132263 
	C51.212574,161.827789 49.564167,162.523300 47.205482,163.333710 
	C43.654682,164.477142 40.103878,165.620560 36.325397,166.837296 
	C38.572708,170.367081 40.958366,174.114151 43.186195,177.613312 
	C52.130043,171.230881 61.357269,172.085388 71.394478,176.322769 
	C72.974007,173.129272 74.479813,170.084839 75.904884,166.371292 
	C75.227402,165.930084 74.549919,165.488861 73.109268,165.026749 
M87.802254,142.703568 
	C83.076576,142.351715 78.270950,142.419724 73.645973,141.539017 
	C68.176765,140.497574 62.863533,138.637039 56.642662,137.050659 
	C55.412125,137.411514 54.181591,137.772385 52.205688,138.135529 
	C47.865818,139.447159 43.525948,140.758804 38.448616,142.027390 
	C37.614311,142.400650 36.780006,142.773895 35.062359,143.106247 
	C31.268373,142.694778 27.474388,142.283295 23.540220,141.856613 
	C25.637398,146.525101 27.798000,151.334763 30.068830,156.750076 
	C31.742401,159.383804 33.415974,162.017548 35.089542,164.651291 
	C35.371391,164.514938 35.653236,164.378601 35.935081,164.242249 
	C34.958023,161.224640 33.980965,158.207047 33.807182,155.033569 
	C38.114895,153.890778 42.568119,153.123444 46.698341,151.522690 
	C54.033039,148.680008 61.135746,148.539520 68.458000,151.448868 
	C72.130867,152.908188 75.973793,154.092377 79.849167,154.812683 
	C81.364067,155.094269 83.957817,154.253799 84.704666,153.069519 
	C86.615005,150.040283 87.763901,146.530853 89.655754,142.979858 
	C89.594009,142.708572 89.532265,142.437271 89.470528,142.165985 
	C89.211212,142.342438 88.951897,142.518890 87.802254,142.703568 
M51.457695,126.925873 
	C51.973042,126.353195 52.488384,125.780518 53.814663,125.023094 
	C61.321373,126.823929 68.747696,129.147430 76.351501,130.317001 
	C92.260750,132.764008 97.895020,129.518250 98.600235,116.043755 
	C94.205452,117.059311 89.760277,118.086525 84.555473,119.042183 
	C83.109634,119.191284 81.663795,119.340385 79.455635,119.734848 
	C76.144043,118.795219 72.832451,117.855591 69.574348,116.955368 
	C69.574348,116.955368 69.640457,116.948784 69.088524,116.362770 
	C65.719757,115.558990 62.350994,114.755203 58.547363,113.435104 
	C57.355579,113.649979 56.163795,113.864861 54.202621,114.040047 
	C49.563892,115.395676 44.925163,116.751305 39.593815,118.084793 
	C39.044525,118.438896 38.495235,118.793007 37.209015,119.126671 
	C35.760139,119.299377 34.311268,119.472084 32.365936,119.235550 
	C31.512239,119.181656 30.658543,119.127754 29.004353,119.134865 
	C24.240433,117.759354 19.476513,116.383842 14.049192,114.816780 
	C15.985759,121.001740 17.695415,126.461990 19.405071,131.922241 
	C19.656841,131.878281 19.908613,131.834320 20.160383,131.790359 
	C20.232935,131.179932 20.305489,130.569489 20.694090,129.667389 
	C20.874870,129.436081 20.989065,129.175583 21.831987,128.951813 
	C29.103403,131.822128 36.360283,131.994400 43.688225,129.058365 
	C45.979633,128.140289 48.433647,127.628036 51.457695,126.925873 
M168.070084,116.401649 
	C164.707397,115.584732 161.344711,114.767815 157.550262,113.438652 
	C156.365845,113.899139 155.181442,114.359627 153.159210,114.978569 
	C148.518188,116.015511 143.877151,117.052452 138.567795,118.071854 
	C138.034958,118.409981 137.502121,118.748108 136.162811,119.106789 
	C129.142578,118.288818 122.122330,117.470848 115.105209,116.653244 
	C115.924706,119.355118 116.872559,122.848671 118.085670,126.247543 
	C118.434036,127.223602 119.453773,128.518448 120.326820,128.657852 
	C125.828827,129.536331 132.180862,132.203934 136.757187,130.428116 
	C150.270157,125.184494 162.571396,126.252861 176.353012,130.235977 
	C188.793991,133.831619 199.422379,130.004532 199.296417,114.598709 
	C189.226334,119.278030 179.056686,121.489128 168.586731,116.952301 
	C168.586731,116.952301 168.657608,116.949745 168.070084,116.401649 
M128.225327,95.765076 
	C127.151741,95.762390 126.078156,95.759705 124.909103,95.174042 
	C124.307121,94.771500 123.705139,94.368958 122.331696,93.937408 
	C118.854897,92.869926 115.378090,91.802444 111.535248,90.335526 
	C110.809792,90.791618 110.084335,91.247719 109.777946,92.490936 
	C109.809669,99.068016 111.950722,103.298462 119.334610,105.014656 
	C126.514977,106.683540 133.679535,108.881111 140.496460,105.843758 
	C152.194092,100.631760 163.163910,101.875420 174.634705,106.424973 
	C178.345383,107.896698 183.152603,107.354347 187.311325,106.739563 
	C191.674042,106.094635 195.882401,104.323051 200.116150,102.917160 
	C202.903214,101.991661 206.632675,93.972237 204.655884,92.110344 
	C203.312012,90.844589 199.743408,91.547707 197.275208,91.977066 
	C194.700974,92.424881 192.268860,93.650017 189.744720,94.439857 
	C188.147949,94.939507 186.496490,95.264465 184.227188,95.215469 
	C181.704773,95.184219 179.182358,95.152977 175.880310,95.138268 
	C174.104706,94.729965 172.329086,94.321663 170.583023,93.945839 
	C170.583023,93.945839 170.626831,93.951042 170.016113,93.463036 
	C167.335190,92.616753 164.654251,91.770470 161.581757,90.431038 
	C160.976990,90.316528 160.372238,90.202019 158.911484,90.158730 
	C156.963745,90.268936 154.929047,90.054604 153.084183,90.548828 
	C147.000793,92.178535 140.986084,94.064545 134.432678,95.352219 
	C132.630051,95.544861 130.827438,95.737503 128.225327,95.765076 
M10.926290,89.273003 
	C10.193634,88.652214 9.460979,88.031425 8.728326,87.410637 
	C8.852677,88.288559 8.977029,89.166489 9.072897,90.857597 
	C9.116405,98.760963 12.192530,103.150513 20.706551,105.238815 
	C29.486202,107.392265 37.497089,108.226593 45.868271,104.617485 
	C53.269775,101.426430 60.867447,100.597961 68.414009,104.189568 
	C78.083061,108.791313 87.564667,108.144478 97.261765,104.057838 
	C103.061630,101.613609 105.797546,96.291290 102.764778,90.105019 
	C102.156631,90.457001 101.548492,90.808975 100.207886,91.205803 
	C95.712791,92.554062 91.217690,93.902321 85.705879,95.100952 
	C83.027550,95.106682 80.349228,95.112404 76.905045,95.132721 
	C72.998619,93.893616 69.158813,92.329224 65.166084,91.511551 
	C61.540707,90.769089 57.626434,90.113419 54.058208,90.715508 
	C48.208118,91.702637 42.535164,93.739555 35.750343,95.130577 
	C33.323086,95.140556 30.895826,95.150536 27.655479,95.186935 
	C22.103962,93.437943 16.552444,91.688950 10.926290,89.273003 
M109.910469,14.140985 
	C105.379570,15.051341 100.431511,15.094108 96.395905,17.034542 
	C84.234604,22.882029 81.783958,37.258808 87.511711,47.707493 
	C93.154335,58.000874 107.563744,62.331394 119.110092,55.743996 
	C129.911331,49.581692 132.003113,33.085835 126.047874,24.348598 
	C122.702560,19.440514 118.194786,16.759621 112.526939,14.336919 
	C111.941223,14.252625 111.355507,14.168329 109.910469,14.140985 
M186.803665,20.416775 
	C186.661682,20.238232 186.484512,20.107288 186.016556,19.461369 
	C176.166534,10.904971 162.286469,13.802888 155.130020,21.056925 
	C146.731812,29.569660 146.542053,43.764469 155.180832,52.370514 
	C164.255997,61.411301 178.876404,61.173698 187.798187,51.840443 
	C196.406326,42.835293 196.044052,29.165552 186.803665,20.416775 
M52.951561,56.785141 
	C65.252220,49.226616 69.123802,36.687397 62.646976,25.383802 
	C57.487942,16.380072 46.668121,12.089024 36.452572,14.995331 
	C27.136044,17.645870 19.305246,27.783165 20.084528,36.872494 
	C21.733667,56.107609 39.500271,62.829899 52.951561,56.785141 
M115.666702,210.411331 
	C133.593506,204.170197 135.109924,179.714828 120.293625,170.811920 
	C112.746223,166.276779 103.488831,165.482315 95.550598,170.458664 
	C88.070023,175.148102 83.872154,184.474533 85.310875,192.730972 
	C87.894516,207.557861 102.771065,214.977737 115.666702,210.411331 
M8.795048,30.064959 
	C5.637691,32.560734 5.417513,35.672028 6.413840,39.038254 
	C7.017115,39.118526 7.620390,39.198795 8.223665,39.279068 
	C8.476719,36.420910 8.729774,33.562756 8.795048,30.064959 
M147.505524,202.962967 
	C146.696030,203.992569 145.886551,205.022156 145.077057,206.051758 
	C145.253479,206.181274 145.429901,206.310791 145.606339,206.440308 
	C147.772781,204.413071 149.939240,202.385834 152.105698,200.358597 
	C151.943054,200.137466 151.780396,199.916351 151.617752,199.695236 
	C150.412750,200.618622 149.207764,201.542007 147.505524,202.962967 
M205.100372,82.954010 
	C204.655670,84.641380 204.210968,86.328751 203.766266,88.016121 
	C204.357895,88.144707 204.949524,88.273300 205.541153,88.401894 
	C206.073273,86.058357 206.605392,83.714813 207.137512,81.371277 
	C206.824219,81.298134 206.510925,81.224998 206.197617,81.151863 
	C205.989166,81.585838 205.780701,82.019806 205.100372,82.954010 
M208.000748,31.993147 
	C207.615814,30.394403 207.230881,28.795658 206.845947,27.196915 
	C206.153992,27.430702 205.462036,27.664492 204.770096,27.898281 
	C205.432419,29.571903 206.076675,31.253540 206.805359,32.897755 
	C206.845871,32.989193 207.585175,32.770943 208.000748,31.993147 
M9.952316,22.452089 
	C9.952316,21.656069 9.952316,20.860046 9.952316,20.064026 
	C9.536753,19.959650 9.121189,19.855274 8.705626,19.750898 
	C8.043664,21.787523 7.381701,23.824150 6.719739,25.860775 
	C7.136917,26.029188 7.554096,26.197599 7.971274,26.366011 
	C8.590158,25.294685 9.209041,24.223360 9.952316,22.452089 
M206.993851,21.849388 
	C206.495850,20.338444 205.997833,18.827497 205.499832,17.316553 
	C204.922897,17.671110 204.345947,18.025667 203.769012,18.380226 
	C204.831680,19.752399 205.894333,21.124571 206.993851,21.849388 
M122.753349,226.116013 
	C123.815651,225.788620 124.877953,225.461227 125.940254,225.133835 
	C125.236931,224.405594 124.533615,223.677338 123.830299,222.949097 
	C122.462822,224.095520 121.095337,225.241943 119.727859,226.388382 
	C120.017281,226.735031 120.306694,227.081680 120.596115,227.428345 
	C121.129120,227.102264 121.662132,226.776199 122.753349,226.116013 
M8.036685,14.657178 
	C8.542624,15.060449 9.048563,15.463719 9.554502,15.866990 
	C10.140611,14.254832 10.726719,12.642674 11.312828,11.030516 
	C10.965101,10.910709 10.617374,10.790902 10.269648,10.671096 
	C9.558950,11.795873 8.848252,12.920650 8.036685,14.657178 
M112.173462,232.471954 
	C113.347572,231.643402 114.521683,230.814850 115.695786,229.986298 
	C115.485039,229.648376 115.274284,229.310455 115.063538,228.972519 
	C113.468033,229.927017 111.872528,230.881516 110.277023,231.836014 
	C110.723358,232.060333 111.169701,232.284653 112.173462,232.471954 
M107.561897,235.242401 
	C106.239700,234.067200 104.917511,232.891983 103.595314,231.716782 
	C103.335167,232.056824 103.075012,232.396881 102.814865,232.736923 
	C104.244263,233.711044 105.673668,234.685181 107.561897,235.242401 
M75.977867,211.493179 
	C75.220200,211.099915 74.462532,210.706635 73.109436,210.004303 
	C75.176270,213.771652 75.176270,213.771652 75.977867,211.493179 
M20.373417,134.783920 
	C20.829954,135.779175 21.286491,136.774414 21.743027,137.769669 
	C22.207148,137.485016 22.671268,137.200378 23.135389,136.915726 
	C22.372395,136.058121 21.609398,135.200516 20.373417,134.783920 
M203.235306,13.046364 
	C203.778748,12.876212 204.322189,12.706059 204.865631,12.535910 
	C204.446854,11.943367 204.028091,11.350825 203.609314,10.758285 
	C203.429306,11.319201 203.249313,11.880119 203.235306,13.046364 
M13.381390,109.730728 
	C13.608393,110.234039 13.819939,110.746162 14.092377,111.223549 
	C14.113667,111.260857 14.560392,111.055374 14.809389,110.962730 
	C14.475951,110.431496 14.142513,109.900261 13.381390,109.730728 
M92.797188,225.385513 
	C92.747826,225.745789 92.698463,226.106079 92.649109,226.466354 
	C92.906570,226.468246 93.164024,226.470139 93.421478,226.472015 
	C93.382484,226.110458 93.343491,225.748886 92.797188,225.385513 
M85.700821,221.588440 
	C85.992737,221.371170 86.284660,221.153885 86.576576,220.936600 
	C86.398949,220.750412 86.221321,220.564240 86.043694,220.378052 
	C85.813591,220.660477 85.583481,220.942902 85.700821,221.588440 
M127.580154,222.302444 
	C127.362701,222.009354 127.145248,221.716263 126.927795,221.423172 
	C126.741318,221.602325 126.554840,221.781479 126.368355,221.960632 
	C126.650993,222.190933 126.933624,222.421219 127.580154,222.302444 
M90.304710,223.411194 
	C90.012878,223.628723 89.721046,223.846268 89.429214,224.063812 
	C89.607132,224.249863 89.785049,224.435898 89.962967,224.621948 
	C90.192719,224.339554 90.422470,224.057159 90.304710,223.411194 
M95.379745,228.217957 
	C95.739693,228.266113 96.099648,228.314270 96.459595,228.362427 
	C96.462967,228.104767 96.466339,227.847092 96.469719,227.589432 
	C96.108856,227.629776 95.748001,227.670105 95.379745,228.217957 
M117.508736,227.444962 
	C117.437019,228.001526 117.365311,228.558090 117.293594,229.114655 
	C117.528259,229.125183 117.762932,229.135712 117.997597,229.146240 
	C117.997597,228.535400 117.997597,227.924576 117.508736,227.444962 
M45.371296,180.214249 
	C45.731205,180.262009 46.091114,180.309753 46.451023,180.357513 
	C46.454117,180.100372 46.457214,179.843216 46.460308,179.586075 
	C46.099186,179.626251 45.738060,179.666412 45.371296,180.214249 
M101.158005,231.949066 
	C101.412758,231.796982 101.797791,231.694580 101.880791,231.476990 
	C101.946419,231.304901 101.641098,230.991333 101.500519,230.740601 
	C101.359497,230.991699 101.218475,231.242798 101.158005,231.949066 
M98.763687,229.818604 
	C98.591133,229.875977 98.418571,229.933334 98.246025,229.990692 
	C98.419769,230.046341 98.593521,230.102005 98.763687,229.818604 
z"/>
<path fill="#132968" opacity="1.000000" stroke="none" 
	d="
M52.588646,56.922829 
	C39.500271,62.829899 21.733667,56.107609 20.084528,36.872494 
	C19.305246,27.783165 27.136044,17.645870 36.452572,14.995331 
	C46.668121,12.089024 57.487942,16.380072 62.646976,25.383802 
	C69.123802,36.687397 65.252220,49.226616 52.588646,56.922829 
z"/>
<path fill="#132968" opacity="1.000000" stroke="none" 
	d="
M115.314819,210.595612 
	C102.771065,214.977737 87.894516,207.557861 85.310875,192.730972 
	C83.872154,184.474533 88.070023,175.148102 95.550598,170.458664 
	C103.488831,165.482315 112.746223,166.276779 120.293625,170.811920 
	C135.109924,179.714828 133.593506,204.170197 115.314819,210.595612 
z"/>
<path fill="#132968" opacity="1.000000" stroke="none" 
	d="
M186.972992,20.704102 
	C196.044052,29.165552 196.406326,42.835293 187.798187,51.840443 
	C178.876404,61.173698 164.255997,61.411301 155.180832,52.370514 
	C146.542053,43.764469 146.731812,29.569660 155.130020,21.056925 
	C162.286469,13.802888 176.166534,10.904971 186.089905,19.980509 
	C186.163254,20.499649 186.506302,20.846727 186.506302,20.846727 
	C186.506302,20.846727 186.972992,20.704102 186.972992,20.704102 
z"/>
<path fill="#132968" opacity="1.000000" stroke="none" 
	d="
M112.965569,14.747106 
	C118.194786,16.759621 122.702560,19.440514 126.047874,24.348598 
	C132.003113,33.085835 129.911331,49.581692 119.110092,55.743996 
	C107.563744,62.331394 93.154335,58.000874 87.511711,47.707493 
	C81.783958,37.258808 84.234604,22.882029 96.395905,17.034542 
	C100.431511,15.094108 105.379570,15.051341 110.470642,14.336649 
	C111.675735,14.603910 112.320648,14.675508 112.965569,14.747106 
z"/>
<path fill="#142A68" opacity="1.000000" stroke="none" 
	d="
M7.185059,78.360901 
	C7.155712,77.132912 7.126364,75.904915 7.392094,74.028336 
	C7.854652,72.142349 8.022133,70.904961 8.189613,69.667572 
	C40.484718,69.681244 72.779823,69.694916 105.691864,70.082893 
	C106.872841,70.634010 107.436882,70.810814 108.001770,71.367554 
	C107.653664,73.406693 107.304703,75.065880 106.955734,76.725075 
	C106.955734,76.725075 107.012726,76.925270 106.669823,76.940689 
	C105.056595,77.593521 103.786270,78.230942 102.515945,78.868362 
	C99.369560,79.834396 96.145935,80.604141 93.092308,81.805855 
	C85.954269,84.614960 78.783157,84.884491 71.824722,81.732597 
	C62.329937,77.431847 53.078796,77.360115 43.592846,81.695023 
	C36.433277,84.966820 29.217865,84.383240 21.854769,81.688446 
	C17.678200,80.159882 13.087583,79.762642 8.174872,78.779404 
	C7.505889,78.588921 7.345474,78.474907 7.185059,78.360901 
z"/>
<path fill="#132868" opacity="1.000000" stroke="none" 
	d="
M107.312157,76.865105 
	C107.304703,75.065880 107.653664,73.406693 108.227341,71.257706 
	C108.638374,70.495209 108.824692,70.222504 109.011017,69.949799 
	C121.998459,69.858223 134.985794,69.714340 147.973373,69.687424 
	C166.969986,69.648064 185.966797,69.692581 205.552185,70.000237 
	C206.436295,70.534981 206.731735,70.770844 207.027161,71.006706 
	C207.089905,71.455643 207.152649,71.904579 206.819763,72.916870 
	C206.295914,74.694748 206.167694,75.909248 206.039459,77.123756 
	C192.767654,81.774178 179.642960,87.318520 165.407944,80.056953 
	C158.912018,76.743233 152.079987,77.818497 145.688522,80.666168 
	C136.320206,84.840157 127.167976,84.777374 117.857109,80.583267 
	C114.587166,79.110306 111.071854,78.182091 107.312157,76.865105 
z"/>
<path fill="#152A69" opacity="1.000000" stroke="none" 
	d="
M36.787510,95.333755 
	C42.535164,93.739555 48.208118,91.702637 54.058208,90.715508 
	C57.626434,90.113419 61.540707,90.769089 65.166084,91.511551 
	C69.158813,92.329224 72.998619,93.893616 77.420319,95.509506 
	C80.996857,97.502556 83.982391,98.072090 86.722595,95.250580 
	C91.217690,93.902321 95.712791,92.554062 100.732925,91.473282 
	C102.009682,91.214157 102.761398,90.687553 103.513123,90.160950 
	C105.797546,96.291290 103.061630,101.613609 97.261765,104.057838 
	C87.564667,108.144478 78.083061,108.791313 68.414009,104.189568 
	C60.867447,100.597961 53.269775,101.426430 45.868271,104.617485 
	C37.497089,108.226593 29.486202,107.392265 20.706551,105.238815 
	C12.192530,103.150513 9.116405,98.760963 9.405031,90.443069 
	C10.158420,89.999023 10.579673,89.969498 11.000927,89.939964 
	C16.552444,91.688950 22.103962,93.437943 28.181767,95.573074 
	C31.401207,95.750732 34.094357,95.542244 36.787510,95.333755 
z"/>
<path fill="#152A69" opacity="1.000000" stroke="none" 
	d="
M111.901291,90.734955 
	C115.378090,91.802444 118.854897,92.869926 122.875671,94.208115 
	C123.947960,94.904892 124.476265,95.330956 125.004570,95.757027 
	C126.078156,95.759705 127.151741,95.762390 128.759277,96.218803 
	C131.177155,96.399071 133.061066,96.125603 134.944992,95.852135 
	C140.986084,94.064545 147.000793,92.178535 153.084183,90.548828 
	C154.929047,90.054604 156.963745,90.268936 159.475952,90.386902 
	C160.684738,90.718102 161.329025,90.821144 161.973328,90.924187 
	C164.654251,91.770470 167.335190,92.616753 170.182785,93.836540 
	C170.484390,94.215965 170.619339,94.221893 170.754272,94.227814 
	C170.687347,94.122993 170.620407,94.018181 170.553482,93.913361 
	C172.329086,94.321663 174.104706,94.729965 176.459503,95.489410 
	C179.648972,95.782959 182.259277,95.725365 184.869568,95.667770 
	C186.496490,95.264465 188.147949,94.939507 189.744720,94.439857 
	C192.268860,93.650017 194.700974,92.424881 197.275208,91.977066 
	C199.743408,91.547707 203.312012,90.844589 204.655884,92.110344 
	C206.632675,93.972237 202.903214,101.991661 200.116150,102.917160 
	C195.882401,104.323051 191.674042,106.094635 187.311325,106.739563 
	C183.152603,107.354347 178.345383,107.896698 174.634705,106.424973 
	C163.163910,101.875420 152.194092,100.631760 140.496460,105.843758 
	C133.679535,108.881111 126.514977,106.683540 119.334610,105.014656 
	C111.950722,103.298462 109.809669,99.068016 109.951950,92.105682 
	C110.717735,91.391937 111.309509,91.063446 111.901291,90.734955 
z"/>
<path fill="#152A69" opacity="1.000000" stroke="none" 
	d="
M139.236115,118.089386 
	C143.877151,117.052452 148.518188,116.015511 153.947174,114.957367 
	C155.817429,114.607742 156.899719,114.279327 157.982025,113.950897 
	C161.344711,114.767815 164.707397,115.584732 168.238159,116.775536 
	C168.406235,117.149422 168.603333,117.316162 168.603333,117.316162 
	C168.603333,117.316162 168.528687,116.911568 168.528687,116.911568 
	C179.056686,121.489128 189.226334,119.278030 199.296417,114.598709 
	C199.422379,130.004532 188.793991,133.831619 176.353012,130.235977 
	C162.571396,126.252861 150.270157,125.184494 136.757187,130.428116 
	C132.180862,132.203934 125.828827,129.536331 120.326820,128.657852 
	C119.453773,128.518448 118.434036,127.223602 118.085670,126.247543 
	C116.872559,122.848671 115.924706,119.355118 115.105209,116.653244 
	C122.122330,117.470848 129.142578,118.288818 136.688156,119.376678 
	C137.887711,119.127502 138.561920,118.608444 139.236115,118.089386 
z"/>
<path fill="#152A69" opacity="1.000000" stroke="none" 
	d="
M69.520859,116.915962 
	C72.832451,117.855591 76.144043,118.795219 79.885849,119.983765 
	C81.982399,119.859695 83.648750,119.486710 85.315102,119.113724 
	C89.760277,118.086525 94.205452,117.059311 98.600235,116.043755 
	C97.895020,129.518250 92.260750,132.764008 76.351501,130.317001 
	C68.747696,129.147430 61.321373,126.823929 53.092659,125.077278 
	C51.851513,125.730988 51.332371,126.330505 50.813232,126.930023 
	C48.433647,127.628036 45.979633,128.140289 43.688225,129.058365 
	C36.360283,131.994400 29.103403,131.822128 21.295479,128.705139 
	C20.631992,128.958664 20.505014,129.458847 20.378040,129.959045 
	C20.305489,130.569489 20.232935,131.179932 20.160383,131.790359 
	C19.908613,131.834320 19.656841,131.878281 19.405071,131.922241 
	C17.695415,126.461990 15.985759,121.001740 14.049192,114.816780 
	C19.476513,116.383842 24.240433,117.759354 29.553886,119.398438 
	C31.023081,119.656273 31.942738,119.650536 32.862396,119.644791 
	C34.311268,119.472084 35.760139,119.299377 37.711361,119.416809 
	C38.904613,119.173607 39.595520,118.640266 40.286430,118.106926 
	C44.925163,116.751305 49.563892,115.395676 54.736580,114.379364 
	C56.507771,114.462929 57.744999,114.207176 58.982231,113.951416 
	C62.350994,114.755203 65.719757,115.558990 69.267021,116.751419 
	C69.445518,117.140060 69.578407,117.277527 69.578407,117.277527 
	C69.578407,117.277527 69.520859,116.915962 69.520859,116.915962 
z"/>
<path fill="#152A69" opacity="1.000000" stroke="none" 
	d="
M181.982620,157.003342 
	C181.982620,157.003342 182.239563,156.587402 182.479431,156.175125 
	C182.151993,155.575790 181.584702,155.388733 181.017395,155.201675 
	C176.077667,153.838776 171.047195,152.735519 166.220612,151.048843 
	C159.833160,148.816681 153.600342,148.492157 147.283798,151.049545 
	C146.363235,151.422226 145.418762,151.742981 144.469574,152.036789 
	C127.319054,157.345428 131.498734,156.850555 124.950058,143.388306 
	C124.941711,143.038666 124.879883,143.066788 124.879883,143.066788 
	C127.930122,143.079788 130.980362,143.092804 134.637726,143.417725 
	C136.213013,143.171906 137.181137,142.614197 138.149277,142.056488 
	C140.175064,141.491943 142.200851,140.927399 144.725189,140.559433 
	C145.854752,140.185349 146.485764,139.614700 147.116760,139.044037 
	C148.497040,138.729065 149.877304,138.414108 151.772552,138.399689 
	C153.360199,138.185944 154.432892,137.671661 155.505569,137.157379 
	C158.010239,137.592422 160.514908,138.027466 163.198425,138.815887 
	C163.483994,139.173050 163.590683,139.176849 163.697388,139.180649 
	C163.630798,139.090561 163.564224,139.000458 163.497635,138.910370 
	C165.348587,139.406082 167.199524,139.901810 169.222046,140.773926 
	C169.497681,141.165756 169.601746,141.181213 169.705795,141.196655 
	C169.648071,141.101303 169.590347,141.005951 169.532608,140.910614 
	C175.487823,141.410477 181.454773,141.814102 187.382904,142.536362 
	C188.095337,142.623169 189.347763,144.757126 189.074448,145.399841 
	C187.352875,149.448135 185.270691,153.343079 182.923157,157.506165 
	C182.339539,157.494186 182.154190,157.254089 181.982620,157.003342 
z"/>
<path fill="#152A69" opacity="1.000000" stroke="none" 
	d="
M29.958601,156.144424 
	C27.798000,151.334763 25.637398,146.525101 23.540220,141.856613 
	C27.474388,142.283295 31.268373,142.694778 35.654549,143.419647 
	C37.226521,143.178864 38.206299,142.624649 39.186081,142.070435 
	C43.525948,140.758804 47.865818,139.447159 52.740986,138.438080 
	C54.678421,138.204254 56.080559,137.667908 57.482689,137.131561 
	C62.863533,138.637039 68.176765,140.497574 73.645973,141.539017 
	C78.270950,142.419724 83.076576,142.351715 88.378624,142.828979 
	C88.954994,142.954376 89.217323,143.213470 89.217331,143.213470 
	C87.763901,146.530853 86.615005,150.040283 84.704666,153.069519 
	C83.957817,154.253799 81.364067,155.094269 79.849167,154.812683 
	C75.973793,154.092377 72.130867,152.908188 68.458000,151.448868 
	C61.135746,148.539520 54.033039,148.680008 46.698341,151.522690 
	C42.568119,153.123444 38.114895,153.890778 33.056786,155.068481 
	C31.523790,155.450409 30.741196,155.797409 29.958601,156.144424 
z"/>
<path fill="#152A69" opacity="1.000000" stroke="none" 
	d="
M177.822540,166.087692 
	C175.731323,169.684128 173.640091,173.280563 170.898834,177.033661 
	C169.992294,177.200409 169.735794,177.210449 169.479294,177.220520 
	C165.824081,175.814850 162.217773,173.430237 158.501633,173.244568 
	C153.553467,172.997391 148.519821,174.461670 142.663513,175.316132 
	C141.176743,173.080872 139.110672,169.974670 136.870987,166.607437 
	C140.203766,165.418335 143.219589,164.342316 146.726624,163.476074 
	C147.861069,163.142532 148.504288,162.599197 149.147491,162.055862 
	C152.683334,161.828690 156.219193,161.601501 160.060394,161.790207 
	C160.365738,162.206085 160.584854,162.159439 160.584854,162.159439 
	C160.584854,162.159439 160.254028,161.896606 160.254028,161.896606 
	C162.513992,162.375244 164.773972,162.853882 167.240479,163.736298 
	C167.447037,164.140060 167.578247,164.275467 167.578247,164.275467 
	C167.578247,164.275467 167.519211,163.915421 167.519211,163.915421 
	C170.412537,164.653152 173.305878,165.390900 176.794220,166.153381 
	C177.389221,166.178116 177.822525,166.087692 177.822540,166.087692 
z"/>
<path fill="#152A69" opacity="1.000000" stroke="none" 
	d="
M75.985611,167.040405 
	C74.479813,170.084839 72.974007,173.129272 71.394478,176.322769 
	C61.357269,172.085388 52.130043,171.230881 43.186195,177.613312 
	C40.958366,174.114151 38.572708,170.367081 36.325397,166.837296 
	C40.103878,165.620560 43.654682,164.477142 47.760902,163.561981 
	C50.104782,162.934387 51.893250,162.078522 53.681717,161.222656 
	C60.157570,162.490677 66.633415,163.758713 73.637268,165.319611 
	C74.772049,166.088455 75.378838,166.564438 75.985611,167.040405 
z"/>
<path fill="#00004B" opacity="1.000000" stroke="none" 
	d="
M201.997971,4.280502 
	C200.678925,4.191117 199.359879,4.023715 198.040817,4.023553 
	C136.328888,4.016009 74.616966,4.023005 12.123273,4.183964 
	C11.184474,4.495256 11.027440,4.650919 10.870405,4.806581 
	C11.222829,4.195687 11.471517,3.177539 11.948592,3.056019 
	C13.048099,2.775953 14.258542,2.912896 15.423977,2.912839 
	C76.405449,2.909825 137.386917,2.907813 198.368393,2.924156 
	C199.850616,2.924553 201.332779,3.133156 202.707550,3.708839 
	C202.399414,4.208853 202.198700,4.244678 201.997971,4.280502 
z"/>
<path fill="#182A6A" opacity="1.000000" stroke="none" 
	d="
M156.938995,184.832245 
	C159.226303,185.089264 161.513626,185.346268 164.173004,185.733337 
	C164.545059,185.863403 164.587799,186.049515 164.587799,186.049515 
	C162.253113,188.945663 159.918427,191.841812 157.029648,194.752838 
	C156.221542,194.258362 155.967514,193.748993 155.713470,193.239624 
	C154.411896,191.380264 152.950470,189.603302 151.919800,187.604263 
	C151.658249,187.096985 152.767578,185.882858 153.741730,185.329315 
	C155.137299,185.387497 156.038147,185.109879 156.938995,184.832245 
z"/>
<path fill="#182B6A" opacity="1.000000" stroke="none" 
	d="
M56.972855,184.924896 
	C59.037586,185.046188 61.102318,185.167465 63.944443,185.334396 
	C61.407906,188.884277 59.388229,191.710815 57.059788,194.969452 
	C55.227722,192.773315 53.094620,190.216309 50.978485,187.038208 
	C51.479950,186.004654 51.964451,185.592178 52.448952,185.179718 
	C53.083961,185.116974 53.718967,185.054214 54.778770,185.290802 
	C55.793331,185.368393 56.383095,185.146637 56.972855,184.924896 
z"/>
<path fill="#A5A8C0" opacity="1.000000" stroke="none" 
	d="
M206.022842,69.034508 
	C206.022842,60.655731 206.022842,52.276955 206.022842,43.898178 
	C206.689514,43.888420 207.356201,43.878658 208.022873,43.868900 
	C208.022873,52.007744 208.022873,60.146587 207.412109,68.664993 
	C206.541840,69.041214 206.282349,69.037857 206.022842,69.034508 
z"/>
<path fill="#7D83A3" opacity="1.000000" stroke="none" 
	d="
M6.995120,66.001221 
	C6.643901,63.622318 5.996842,61.242348 6.005384,58.864738 
	C6.021307,54.432941 6.418580,50.002514 6.657139,45.571514 
	C7.065753,45.601032 7.474366,45.630547 7.882979,45.660065 
	C7.882979,52.162834 7.882979,58.665604 7.641898,65.650970 
	C7.400817,66.133568 6.995120,66.001221 6.995120,66.001221 
z"/>
<path fill="#FDFDFE" opacity="1.000000" stroke="none" 
	d="
M8.888938,30.384777 
	C8.729774,33.562756 8.476719,36.420910 8.223665,39.279068 
	C7.620390,39.198795 7.017115,39.118526 6.413840,39.038254 
	C5.417513,35.672028 5.637691,32.560734 8.888938,30.384777 
z"/>
<path fill="#FAFAFC" opacity="1.000000" stroke="none" 
	d="
M30.013714,156.447250 
	C30.741196,155.797409 31.523790,155.450409 32.655144,155.146423 
	C33.980965,158.207047 34.958023,161.224640 35.935081,164.242249 
	C35.653236,164.378601 35.371391,164.514938 35.089542,164.651291 
	C33.415974,162.017548 31.742401,159.383804 30.013714,156.447250 
z"/>
<path fill="#FAFAFC" opacity="1.000000" stroke="none" 
	d="
M147.754150,202.714172 
	C149.207764,201.542007 150.412750,200.618622 151.617752,199.695236 
	C151.780396,199.916351 151.943054,200.137466 152.105698,200.358597 
	C149.939240,202.385834 147.772781,204.413071 145.606339,206.440308 
	C145.429901,206.310791 145.253479,206.181274 145.077057,206.051758 
	C145.886551,205.022156 146.696030,203.992569 147.754150,202.714172 
z"/>
<path fill="#FAFAFC" opacity="1.000000" stroke="none" 
	d="
M178.145691,165.940765 
	C177.822525,166.087692 177.389221,166.178116 177.194550,166.072845 
	C178.477203,163.115463 179.954529,160.263321 181.707245,157.207275 
	C182.154190,157.254089 182.339539,157.494186 182.750214,157.806915 
	C181.464127,160.524719 179.966507,163.159286 178.145691,165.940765 
z"/>
<path fill="#FAFAFC" opacity="1.000000" stroke="none" 
	d="
M199.953156,113.062996 
	C198.570786,109.866653 199.457352,107.454926 203.046066,105.968491 
	C202.173218,108.120056 201.300369,110.271629 200.215836,112.713463 
	C200.004150,113.003731 199.953156,113.062996 199.953156,113.062996 
z"/>
<path fill="#FAFAFC" opacity="1.000000" stroke="none" 
	d="
M205.336304,82.703896 
	C205.780701,82.019806 205.989166,81.585838 206.197617,81.151863 
	C206.510925,81.224998 206.824219,81.298134 207.137512,81.371277 
	C206.605392,83.714813 206.073273,86.058357 205.541153,88.401894 
	C204.949524,88.273300 204.357895,88.144707 203.766266,88.016121 
	C204.210968,86.328751 204.655670,84.641380 205.336304,82.703896 
z"/>
<path fill="#FDFDFE" opacity="1.000000" stroke="none" 
	d="
M207.999985,32.344990 
	C207.585175,32.770943 206.845871,32.989193 206.805359,32.897755 
	C206.076675,31.253540 205.432419,29.571903 204.770096,27.898281 
	C205.462036,27.664492 206.153992,27.430702 206.845947,27.196915 
	C207.230881,28.795658 207.615814,30.394403 207.999985,32.344990 
z"/>
<path fill="#FDFDFE" opacity="1.000000" stroke="none" 
	d="
M9.890120,22.802061 
	C9.209041,24.223360 8.590158,25.294685 7.971274,26.366011 
	C7.554096,26.197599 7.136917,26.029188 6.719739,25.860775 
	C7.381701,23.824150 8.043664,21.787523 8.705626,19.750898 
	C9.121189,19.855274 9.536753,19.959650 9.952316,20.064026 
	C9.952316,20.860046 9.952316,21.656069 9.890120,22.802061 
z"/>
<path fill="#FAFAFC" opacity="1.000000" stroke="none" 
	d="
M184.548370,95.441620 
	C182.259277,95.725365 179.648972,95.782959 176.849304,95.481148 
	C179.182358,95.152977 181.704773,95.184219 184.548370,95.441620 
z"/>
<path fill="#FAFAFC" opacity="1.000000" stroke="none" 
	d="
M86.214233,95.175766 
	C83.982391,98.072090 80.996857,97.502556 77.803253,95.502213 
	C80.349228,95.112404 83.027550,95.106682 86.214233,95.175766 
z"/>
<path fill="#FAFAFC" opacity="1.000000" stroke="none" 
	d="
M36.268929,95.232162 
	C34.094357,95.542244 31.401207,95.750732 28.588310,95.559860 
	C30.895826,95.150536 33.323086,95.140556 36.268929,95.232162 
z"/>
<path fill="#FAFAFC" opacity="1.000000" stroke="none" 
	d="
M64.991928,203.008545 
	C63.561428,201.831146 62.130936,200.653748 60.700439,199.476349 
	C61.295963,198.969131 61.891483,198.461914 62.487007,197.954697 
	C63.322880,199.388184 64.158752,200.821686 64.997314,202.627594 
	C65.000000,203.000000 64.991928,203.008545 64.991928,203.008545 
z"/>
<path fill="#FDFDFE" opacity="1.000000" stroke="none" 
	d="
M206.975433,22.173065 
	C205.894333,21.124571 204.831680,19.752399 203.769012,18.380226 
	C204.345947,18.025667 204.922897,17.671110 205.499832,17.316553 
	C205.997833,18.827497 206.495850,20.338444 206.975433,22.173065 
z"/>
<path fill="#FAFAFC" opacity="1.000000" stroke="none" 
	d="
M7.132090,78.799881 
	C7.345474,78.474907 7.505889,78.588921 7.844831,78.938042 
	C8.785227,80.671272 9.547095,82.169388 10.308964,83.667511 
	C9.695990,83.930122 9.083014,84.192741 8.470040,84.455353 
	C8.006400,82.716522 7.542761,80.977699 7.132090,78.799881 
z"/>
<path fill="#FAFAFC" opacity="1.000000" stroke="none" 
	d="
M122.474243,226.283081 
	C121.662132,226.776199 121.129120,227.102264 120.596115,227.428345 
	C120.306694,227.081680 120.017281,226.735031 119.727859,226.388382 
	C121.095337,225.241943 122.462822,224.095520 123.830299,222.949097 
	C124.533615,223.677338 125.236931,224.405594 125.940254,225.133835 
	C124.877953,225.461227 123.815651,225.788620 122.474243,226.283081 
z"/>
<path fill="#FAFAFC" opacity="1.000000" stroke="none" 
	d="
M52.114326,185.040054 
	C51.964451,185.592178 51.479950,186.004654 50.857849,186.709991 
	C49.134949,186.051468 47.549644,185.100067 45.964344,184.148651 
	C46.573181,183.475952 47.182018,182.803253 47.790855,182.130554 
	C49.120468,183.053833 50.450085,183.977112 52.114326,185.040054 
z"/>
<path fill="#FDFDFE" opacity="1.000000" stroke="none" 
	d="
M8.087120,14.351303 
	C8.848252,12.920650 9.558950,11.795873 10.269648,10.671096 
	C10.617374,10.790902 10.965101,10.910709 11.312828,11.030516 
	C10.726719,12.642674 10.140611,14.254832 9.554502,15.866990 
	C9.048563,15.463719 8.542624,15.060449 8.087120,14.351303 
z"/>
<path fill="#FAFAFC" opacity="1.000000" stroke="none" 
	d="
M111.894753,232.490448 
	C111.169701,232.284653 110.723358,232.060333 110.277023,231.836014 
	C111.872528,230.881516 113.468033,229.927017 115.063538,228.972519 
	C115.274284,229.310455 115.485039,229.648376 115.695786,229.986298 
	C114.521683,230.814850 113.347572,231.643402 111.894753,232.490448 
z"/>
<path fill="#FAFAFC" opacity="1.000000" stroke="none" 
	d="
M134.688843,95.602173 
	C133.061066,96.125603 131.177155,96.399071 129.159027,96.301338 
	C130.827438,95.737503 132.630051,95.544861 134.688843,95.602173 
z"/>
<path fill="#FAFAFC" opacity="1.000000" stroke="none" 
	d="
M107.332489,235.450851 
	C105.673668,234.685181 104.244263,233.711044 102.814865,232.736923 
	C103.075012,232.396881 103.335167,232.056824 103.595314,231.716782 
	C104.917511,232.891983 106.239700,234.067200 107.332489,235.450851 
z"/>
<path fill="#FAFAFC" opacity="1.000000" stroke="none" 
	d="
M84.935287,119.077957 
	C83.648750,119.486710 81.982399,119.859695 80.267006,119.861084 
	C81.663795,119.340385 83.109634,119.191284 84.935287,119.077957 
z"/>
<path fill="#FAFAFC" opacity="1.000000" stroke="none" 
	d="
M192.902008,135.901306 
	C193.020447,134.096924 193.138885,132.292526 193.257339,130.488144 
	C193.822083,130.585144 194.386810,130.682129 194.951553,130.779129 
	C194.510605,132.388947 194.069656,133.998779 193.318863,135.806946 
	C193.009018,136.005280 192.902008,135.901306 192.902008,135.901306 
z"/>
<path fill="#FAFAFC" opacity="1.000000" stroke="none" 
	d="
M193.064209,136.055466 
	C192.491165,137.782074 191.862930,139.458511 191.234711,141.134949 
	C190.804474,140.963715 190.374222,140.792480 189.943985,140.621246 
	C190.711334,139.108597 191.478683,137.595963 192.574020,135.992310 
	C192.902008,135.901306 193.009018,136.005280 193.064209,136.055466 
z"/>
<path fill="#FAFAFC" opacity="1.000000" stroke="none" 
	d="
M76.187805,211.743256 
	C75.176270,213.771652 75.176270,213.771652 73.109436,210.004303 
	C74.462532,210.706635 75.220200,211.099915 76.187805,211.743256 
z"/>
<path fill="#FAFAFC" opacity="1.000000" stroke="none" 
	d="
M164.933868,185.938461 
	C164.587799,186.049515 164.545059,185.863403 164.596222,185.786804 
	C165.474930,184.161331 166.302460,182.612488 167.565201,181.034180 
	C168.000397,181.004745 168.110062,181.115250 168.110062,181.115250 
	C167.166687,182.685974 166.223328,184.256683 164.933868,185.938461 
z"/>
<path fill="#FAFAFC" opacity="1.000000" stroke="none" 
	d="
M169.240784,177.382233 
	C169.735794,177.210449 169.992294,177.200409 170.628021,177.257187 
	C170.246887,178.533417 169.486542,179.742828 168.418137,181.033737 
	C168.110062,181.115250 168.000397,181.004745 167.942551,180.951233 
	C168.257233,179.779800 168.629761,178.661896 169.240784,177.382233 
z"/>
<path fill="#FDFDFE" opacity="1.000000" stroke="none" 
	d="
M202.005981,4.607954 
	C202.198700,4.244678 202.399414,4.208853 202.901489,4.120807 
	C203.880508,4.942211 204.558151,5.815835 205.235794,6.689461 
	C204.864655,6.996972 204.493500,7.304482 204.122345,7.611993 
	C203.419556,6.719798 202.716766,5.827602 202.005981,4.607954 
z"/>
<path fill="#FAFAFC" opacity="1.000000" stroke="none" 
	d="
M53.271347,161.177460 
	C51.893250,162.078522 50.104782,162.934387 48.116039,163.504547 
	C49.564167,162.523300 51.212574,161.827789 53.271347,161.177460 
z"/>
<path fill="#FAFAFC" opacity="1.000000" stroke="none" 
	d="
M20.609909,134.563416 
	C21.609398,135.200516 22.372395,136.058121 23.135389,136.915726 
	C22.671268,137.200378 22.207148,137.485016 21.743027,137.769669 
	C21.286491,136.774414 20.829954,135.779175 20.609909,134.563416 
z"/>
<path fill="#FDFDFE" opacity="1.000000" stroke="none" 
	d="
M10.824270,5.107248 
	C11.027440,4.650919 11.184474,4.495256 11.672586,4.319804 
	C11.897042,5.701023 11.790420,7.102030 11.683797,8.503038 
	C11.240216,8.478299 10.796637,8.453560 10.353056,8.428821 
	C10.494749,7.421852 10.636442,6.414883 10.824270,5.107248 
z"/>
<path fill="#FAFAFC" opacity="1.000000" stroke="none" 
	d="
M10.963608,89.606491 
	C10.579673,89.969498 10.158420,89.999023 9.419273,90.036484 
	C8.977029,89.166489 8.852677,88.288559 8.728325,87.410637 
	C9.460979,88.031425 10.193634,88.652214 10.963608,89.606491 
z"/>
<path fill="#FAFAFC" opacity="1.000000" stroke="none" 
	d="
M102.925995,78.907845 
	C103.786270,78.230942 105.056595,77.593521 106.688652,77.043045 
	C105.812271,77.735764 104.574150,78.341545 102.925995,78.907845 
z"/>
<path fill="#00125E" opacity="1.000000" stroke="none" 
	d="
M6.920154,66.438393 
	C6.995120,66.001221 7.400817,66.133568 7.614051,66.126518 
	C7.924555,67.064964 8.021825,68.010460 8.154354,69.311768 
	C8.022133,70.904961 7.854652,72.142349 7.443722,73.661125 
	C7.081910,71.586861 6.963548,69.231216 6.920154,66.438393 
z"/>
<path fill="#FAFAFC" opacity="1.000000" stroke="none" 
	d="
M65.004074,202.995911 
	C66.001472,203.745010 66.994797,204.498184 67.994064,205.625671 
	C68.000000,206.000000 67.992821,206.007919 67.992821,206.007919 
	C67.017029,205.234024 66.041229,204.460144 65.028687,203.347397 
	C64.991928,203.008545 65.000000,203.000000 65.004074,202.995911 
z"/>
<path fill="#FAFAFC" opacity="1.000000" stroke="none" 
	d="
M57.062675,137.091095 
	C56.080559,137.667908 54.678421,138.204254 53.113670,138.436920 
	C54.181591,137.772385 55.412125,137.411514 57.062675,137.091095 
z"/>
<path fill="#FAFAFC" opacity="1.000000" stroke="none" 
	d="
M58.764797,113.693260 
	C57.744999,114.207176 56.507771,114.462929 55.121277,114.399216 
	C56.163795,113.864861 57.355579,113.649979 58.764797,113.693260 
z"/>
<path fill="#FAFAFC" opacity="1.000000" stroke="none" 
	d="
M157.766144,113.694778 
	C156.899719,114.279327 155.817429,114.607742 154.366074,114.878143 
	C155.181442,114.359627 156.365845,113.899139 157.766144,113.694778 
z"/>
<path fill="#FDFDFE" opacity="1.000000" stroke="none" 
	d="
M203.152313,12.743700 
	C203.249313,11.880119 203.429306,11.319201 203.609314,10.758284 
	C204.028091,11.350825 204.446854,11.943367 204.865631,12.535908 
	C204.322189,12.706059 203.778748,12.876212 203.152313,12.743700 
z"/>
<path fill="#FAFAFC" opacity="1.000000" stroke="none" 
	d="
M133.031662,217.032074 
	C132.508499,218.008148 131.985336,218.984222 131.462173,219.960297 
	C131.043167,219.647415 130.624176,219.334534 130.205170,219.021652 
	C130.908112,218.362869 131.611053,217.704071 132.656494,217.022064 
	C132.998993,216.998856 133.031662,217.032074 133.031662,217.032074 
z"/>
<path fill="#FAFAFC" opacity="1.000000" stroke="none" 
	d="
M82.970505,219.038574 
	C82.003120,218.518570 81.035736,217.998566 80.068359,217.478561 
	C80.374573,217.058182 80.680779,216.637787 80.986992,216.217407 
	C81.643333,216.918472 82.299675,217.619537 82.978012,218.661667 
	C83.000015,219.002747 82.970505,219.038574 82.970505,219.038574 
z"/>
<path fill="#FAFAFC" opacity="1.000000" stroke="none" 
	d="
M68.003761,205.996231 
	C69.148483,206.266708 70.289444,206.540955 71.430397,206.815201 
	C71.253777,207.257462 71.077156,207.699707 70.900528,208.141953 
	C69.968758,207.652176 69.036980,207.162399 68.049011,206.340271 
	C67.992821,206.007919 68.000000,206.000000 68.003761,205.996231 
z"/>
<path fill="#FAFAFC" opacity="1.000000" stroke="none" 
	d="
M111.718262,90.535233 
	C111.309509,91.063446 110.717735,91.391937 109.742416,91.712128 
	C110.084335,91.247719 110.809792,90.791618 111.718262,90.535233 
z"/>
<path fill="#FAFAFC" opacity="1.000000" stroke="none" 
	d="
M155.111328,137.112793 
	C154.432892,137.671661 153.360199,138.185944 152.128479,138.392670 
	C152.885315,137.746140 153.801208,137.407166 155.111328,137.112793 
z"/>
<path fill="#FAFAFC" opacity="1.000000" stroke="none" 
	d="
M156.740967,184.604462 
	C156.038147,185.109879 155.137299,185.387497 154.110229,185.355469 
	C154.836975,184.822769 155.689941,184.599731 156.740967,184.604462 
z"/>
<path fill="#FAFAFC" opacity="1.000000" stroke="none" 
	d="
M155.486801,193.592468 
	C155.967514,193.748993 156.221542,194.258362 156.737900,194.920532 
	C156.628418,195.818787 156.256592,196.564255 155.884766,197.309738 
	C155.629242,197.242554 155.373718,197.175385 155.118195,197.108200 
	C155.165512,196.053909 155.212814,194.999619 155.486801,193.592468 
z"/>
<path fill="#FAFAFC" opacity="1.000000" stroke="none" 
	d="
M38.817348,142.048920 
	C38.206299,142.624649 37.226521,143.178864 36.096222,143.440094 
	C36.780006,142.773895 37.614311,142.400650 38.817348,142.048920 
z"/>
<path fill="#FAFAFC" opacity="1.000000" stroke="none" 
	d="
M136.113739,215.119965 
	C135.316177,215.746918 134.518631,216.373886 133.376373,217.016464 
	C133.031662,217.032074 132.998993,216.998856 132.982513,216.981644 
	C133.713791,216.299301 134.461548,215.634171 135.607697,214.988922 
	C136.006088,215.008804 136.113739,215.119965 136.113739,215.119965 
z"/>
<path fill="#FAFAFC" opacity="1.000000" stroke="none" 
	d="
M137.783997,142.038818 
	C137.181137,142.614197 136.213013,143.171906 135.095612,143.437637 
	C135.770462,142.770813 136.594589,142.395981 137.783997,142.038818 
z"/>
<path fill="#FAFAFC" opacity="1.000000" stroke="none" 
	d="
M32.614166,119.440170 
	C31.942738,119.650536 31.023081,119.656273 29.954134,119.367935 
	C30.658543,119.127754 31.512239,119.181656 32.614166,119.440170 
z"/>
<path fill="#FAFAFC" opacity="1.000000" stroke="none" 
	d="
M139.962387,210.971176 
	C140.520035,210.370316 141.077698,209.769455 141.635345,209.168594 
	C141.933060,209.448776 142.230774,209.728958 142.528488,210.009140 
	C141.921982,210.340805 141.315460,210.672470 140.353149,211.002029 
	C139.997360,210.999924 139.962387,210.971176 139.962387,210.971176 
z"/>
<path fill="#FAFAFC" opacity="1.000000" stroke="none" 
	d="
M13.595232,109.549881 
	C14.142513,109.900261 14.475951,110.431496 14.809389,110.962730 
	C14.560392,111.055374 14.113667,111.260857 14.092377,111.223549 
	C13.819939,110.746162 13.608393,110.234039 13.595232,109.549881 
z"/>
<path fill="#FAFAFC" opacity="1.000000" stroke="none" 
	d="
M93.050842,225.386414 
	C93.343491,225.748886 93.382484,226.110458 93.421478,226.472015 
	C93.164024,226.470139 92.906570,226.468246 92.649109,226.466354 
	C92.698463,226.106079 92.747826,225.745789 93.050842,225.386414 
z"/>
<path fill="#FAFAFC" opacity="1.000000" stroke="none" 
	d="
M135.951202,214.954285 
	C136.241974,214.409927 136.587646,213.920090 136.933304,213.430252 
	C137.145935,213.616043 137.358566,213.801819 137.571198,213.987610 
	C137.269226,214.318359 136.967255,214.649124 136.389526,215.049927 
	C136.113739,215.119965 136.006088,215.008804 135.951202,214.954285 
z"/>
<path fill="#FAFAFC" opacity="1.000000" stroke="none" 
	d="
M85.527100,221.406891 
	C85.583481,220.942902 85.813591,220.660477 86.043694,220.378052 
	C86.221321,220.564240 86.398949,220.750412 86.576584,220.936600 
	C86.284660,221.153885 85.992737,221.371170 85.527100,221.406891 
z"/>
<path fill="#FAFAFC" opacity="1.000000" stroke="none" 
	d="
M127.398209,222.476974 
	C126.933624,222.421219 126.650993,222.190933 126.368362,221.960632 
	C126.554840,221.781479 126.741318,221.602325 126.927795,221.423172 
	C127.145248,221.716263 127.362701,222.009354 127.398209,222.476974 
z"/>
<path fill="#FAFAFC" opacity="1.000000" stroke="none" 
	d="
M56.822563,184.707001 
	C56.383095,185.146637 55.793331,185.368393 55.098766,185.303925 
	C55.553398,184.841522 56.112835,184.665329 56.822563,184.707001 
z"/>
<path fill="#FAFAFC" opacity="1.000000" stroke="none" 
	d="
M90.478470,223.592972 
	C90.422470,224.057159 90.192719,224.339554 89.962967,224.621948 
	C89.785049,224.435898 89.607132,224.249863 89.429214,224.063812 
	C89.721046,223.846268 90.012878,223.628723 90.478470,223.592972 
z"/>
<path fill="#00125E" opacity="1.000000" stroke="none" 
	d="
M206.380402,76.949165 
	C206.167694,75.909248 206.295914,74.694748 206.703217,73.241600 
	C206.895340,74.260162 206.808350,75.517372 206.380402,76.949165 
z"/>
<path fill="#FAFAFC" opacity="1.000000" stroke="none" 
	d="
M95.383438,227.964203 
	C95.748001,227.670105 96.108856,227.629776 96.469719,227.589432 
	C96.466339,227.847092 96.462967,228.104767 96.459595,228.362427 
	C96.099648,228.314270 95.739693,228.266113 95.383438,227.964203 
z"/>
<path fill="#FAFAFC" opacity="1.000000" stroke="none" 
	d="
M117.753166,227.379349 
	C117.997597,227.924576 117.997597,228.535400 117.997597,229.146240 
	C117.762932,229.135712 117.528259,229.125183 117.293594,229.114655 
	C117.365311,228.558090 117.437019,228.001526 117.753166,227.379349 
z"/>
<path fill="#FAFAFC" opacity="1.000000" stroke="none" 
	d="
M103.138947,90.132980 
	C102.761398,90.687553 102.009682,91.214157 101.099152,91.450859 
	C101.548492,90.808975 102.156631,90.457001 103.138947,90.132980 
z"/>
<path fill="#FAFAFC" opacity="1.000000" stroke="none" 
	d="
M124.956833,95.465530 
	C124.476265,95.330956 123.947960,94.904892 123.261398,94.222626 
	C123.705139,94.368958 124.307121,94.771500 124.956833,95.465530 
z"/>
<path fill="#FAFAFC" opacity="1.000000" stroke="none" 
	d="
M146.778290,139.058426 
	C146.485764,139.614700 145.854752,140.185349 145.066696,140.497498 
	C145.419693,139.850266 145.929749,139.461533 146.778290,139.058426 
z"/>
<path fill="#FAFAFC" opacity="1.000000" stroke="none" 
	d="
M51.135464,126.927948 
	C51.332371,126.330505 51.851513,125.730988 52.687195,125.169647 
	C52.488384,125.780518 51.973042,126.353195 51.135464,126.927948 
z"/>
<path fill="#FAFAFC" opacity="1.000000" stroke="none" 
	d="
M12.906646,106.091820 
	C12.421133,105.745544 11.935621,105.399261 11.450109,105.052979 
	C11.641169,104.848785 11.832226,104.644600 12.023283,104.440407 
	C12.338160,104.757919 12.653036,105.075424 12.976906,105.706345 
	C12.985898,106.019760 12.906647,106.091820 12.906646,106.091820 
z"/>
<path fill="#FAFAFC" opacity="1.000000" stroke="none" 
	d="
M138.901947,118.080620 
	C138.561920,118.608444 137.887711,119.127502 137.091400,119.366394 
	C137.502121,118.748108 138.034958,118.409981 138.901947,118.080620 
z"/>
<path fill="#FAFAFC" opacity="1.000000" stroke="none" 
	d="
M39.940121,118.095856 
	C39.595520,118.640266 38.904613,119.173607 38.079826,119.427032 
	C38.495235,118.793007 39.044525,118.438896 39.940121,118.095856 
z"/>
<path fill="#FAFAFC" opacity="1.000000" stroke="none" 
	d="
M161.777542,90.677612 
	C161.329025,90.821144 160.684738,90.718102 159.903961,90.351288 
	C160.372238,90.202019 160.976990,90.316528 161.777542,90.677612 
z"/>
<path fill="#FAFAFC" opacity="1.000000" stroke="none" 
	d="
M148.816254,162.060974 
	C148.504288,162.599197 147.861069,163.142532 147.082260,163.415344 
	C147.459457,162.785248 147.972244,162.425659 148.816254,162.060974 
z"/>
<path fill="#FAFAFC" opacity="1.000000" stroke="none" 
	d="
M75.945251,166.705841 
	C75.378838,166.564438 74.772049,166.088455 74.018860,165.330063 
	C74.549919,165.488861 75.227402,165.930084 75.945251,166.705841 
z"/>
<path fill="#FAFAFC" opacity="1.000000" stroke="none" 
	d="
M45.374115,179.960419 
	C45.738060,179.666412 46.099186,179.626251 46.460308,179.586075 
	C46.457214,179.843216 46.454117,180.100372 46.451023,180.357513 
	C46.091114,180.309753 45.731205,180.262009 45.374115,179.960419 
z"/>
<path fill="#00125E" opacity="1.000000" stroke="none" 
	d="
M108.638290,69.856873 
	C108.824692,70.222504 108.638374,70.495209 108.226486,70.877762 
	C107.436882,70.810814 106.872841,70.634010 106.146255,70.203072 
	C106.744324,69.887276 107.504944,69.825615 108.638290,69.856873 
z"/>
<path fill="#FDFDFE" opacity="1.000000" stroke="none" 
	d="
M112.746254,14.542012 
	C112.320648,14.675508 111.675735,14.603910 110.900299,14.308173 
	C111.355507,14.168329 111.941223,14.252625 112.746254,14.542012 
z"/>
<path fill="#FAFAFC" opacity="1.000000" stroke="none" 
	d="
M101.117729,231.721481 
	C101.218475,231.242798 101.359497,230.991699 101.500519,230.740601 
	C101.641098,230.991333 101.946419,231.304901 101.880791,231.476990 
	C101.797791,231.694580 101.412758,231.796982 101.117729,231.721481 
z"/>
<path fill="#00125E" opacity="1.000000" stroke="none" 
	d="
M205.983429,69.220795 
	C206.282349,69.037857 206.541840,69.041214 207.189468,69.014214 
	C207.464859,69.436111 207.352127,69.888351 207.133270,70.673653 
	C206.731735,70.770844 206.436295,70.534981 206.011963,70.041061 
	C205.883072,69.782997 205.944031,69.407089 205.983429,69.220795 
z"/>
<path fill="#FAFAFC" opacity="1.000000" stroke="none" 
	d="
M98.765480,229.988129 
	C98.593521,230.102005 98.419769,230.046341 98.246017,229.990692 
	C98.418571,229.933334 98.591133,229.875977 98.765480,229.988129 
z"/>
<path fill="#FAFAFC" opacity="1.000000" stroke="none" 
	d="
M181.182541,155.411652 
	C181.584702,155.388733 182.151993,155.575790 182.505768,155.932083 
	C181.977386,155.941422 181.662537,155.781525 181.182541,155.411652 
z"/>
<path fill="#FAFAFC" opacity="1.000000" stroke="none" 
	d="
M20.536064,129.813217 
	C20.505014,129.458847 20.631992,128.958664 20.897823,128.672180 
	C20.989065,129.175583 20.874870,129.436081 20.536064,129.813217 
z"/>
<path fill="#FAFAFC" opacity="1.000000" stroke="none" 
	d="
M13.028849,105.987762 
	C13.188304,106.417923 13.304809,106.880066 13.421312,107.342216 
	C13.276283,107.082123 13.131253,106.822029 12.946436,106.326874 
	C12.906647,106.091820 12.985898,106.019760 13.028849,105.987762 
z"/>
<path fill="#FAFAFC" opacity="1.000000" stroke="none" 
	d="
M69.547607,116.935669 
	C69.520859,116.915962 69.578407,117.277527 69.578407,117.277527 
	C69.578407,117.277527 69.445518,117.140060 69.542984,117.044418 
	C69.640457,116.948784 69.574348,116.955368 69.547607,116.935669 
z"/>
<path fill="#FAFAFC" opacity="1.000000" stroke="none" 
	d="
M168.557709,116.931931 
	C168.528687,116.911568 168.603333,117.316162 168.603333,117.316162 
	C168.603333,117.316162 168.406235,117.149422 168.531921,117.049583 
	C168.657608,116.949745 168.586731,116.952301 168.557709,116.931931 
z"/>
<path fill="#FAFAFC" opacity="1.000000" stroke="none" 
	d="
M163.527939,138.929993 
	C163.564224,139.000458 163.630798,139.090561 163.697388,139.180649 
	C163.590683,139.176849 163.483994,139.173050 163.503830,139.057846 
	C163.630371,138.946426 163.558243,138.949615 163.527939,138.929993 
z"/>
<path fill="#FAFAFC" opacity="1.000000" stroke="none" 
	d="
M83.017670,218.987701 
	C83.148819,219.127670 83.262306,219.282669 83.375793,219.437683 
	C83.284538,219.393341 83.193291,219.348999 83.036270,219.171616 
	C82.970505,219.038574 83.000015,219.002747 83.017670,218.987701 
z"/>
<path fill="#FAFAFC" opacity="1.000000" stroke="none" 
	d="
M169.562622,140.931396 
	C169.590347,141.005951 169.648071,141.101303 169.705795,141.196655 
	C169.601746,141.181213 169.497681,141.165756 169.529633,141.050415 
	C169.665619,140.950516 169.592651,140.952164 169.562622,140.931396 
z"/>
<path fill="#152A69" opacity="1.000000" stroke="none" 
	d="
M88.823792,142.824860 
	C88.951897,142.518890 89.211212,142.342438 89.470528,142.165985 
	C89.532265,142.437271 89.594009,142.708572 89.436539,143.096664 
	C89.217323,143.213470 88.954994,142.954376 88.823792,142.824860 
z"/>
<path fill="#152A69" opacity="1.000000" stroke="none" 
	d="
M124.971329,143.022034 
	C124.878174,142.803192 124.755394,142.600998 124.632622,142.398788 
	C124.821808,142.528824 125.010986,142.658844 125.040024,142.927826 
	C124.879883,143.066788 124.941711,143.038666 124.971329,143.022034 
z"/>
<path fill="#FAFAFC" opacity="1.000000" stroke="none" 
	d="
M140.012009,211.017151 
	C139.915436,211.056824 139.804214,211.079254 139.827698,211.036438 
	C139.962387,210.971176 139.997360,210.999924 140.012009,211.017151 
z"/>
<path fill="#FAFAFC" opacity="1.000000" stroke="none" 
	d="
M170.568253,93.929596 
	C170.620407,94.018181 170.687347,94.122993 170.754272,94.227814 
	C170.619339,94.221893 170.484390,94.215965 170.488144,94.080544 
	C170.626831,93.951042 170.583023,93.945839 170.568253,93.929596 
z"/>
<path fill="#FDFDFE" opacity="1.000000" stroke="none" 
	d="
M186.888336,20.560438 
	C186.972992,20.704102 186.506302,20.846727 186.506302,20.846727 
	C186.506302,20.846727 186.163254,20.499649 186.217712,20.261795 
	C186.484512,20.107288 186.661682,20.238232 186.888336,20.560438 
z"/>
<path fill="#FAFAFC" opacity="1.000000" stroke="none" 
	d="
M160.286469,161.910370 
	C160.254028,161.896606 160.584854,162.159439 160.584854,162.159439 
	C160.584854,162.159439 160.365738,162.206085 160.377258,162.060425 
	C160.388763,161.914780 160.318909,161.924118 160.286469,161.910370 
z"/>
<path fill="#FAFAFC" opacity="1.000000" stroke="none" 
	d="
M167.545944,163.935150 
	C167.519211,163.915421 167.578247,164.275467 167.578247,164.275467 
	C167.578247,164.275467 167.447037,164.140060 167.542908,164.044083 
	C167.638779,163.948105 167.572678,163.954895 167.545944,163.935150 
z"/>
<path fill="#FAFAFC" opacity="1.000000" stroke="none" 
	d="
M200.033691,112.978142 
	C200.171204,113.119209 200.279160,113.285873 200.387115,113.452530 
	C200.291122,113.410568 200.195114,113.368599 200.026138,113.194809 
	C199.953156,113.062996 200.004150,113.003731 200.033691,112.978142 
z"/>
</svg>